<svg width="53.705" height="60" viewBox="0 0 14.209 15.875" xmlns="http://www.w3.org/2000/svg"><path d="M8.07.548H6.11L.945 11.72l.148.6-.865 2.54.38.696 3.752-.948.739.653 3.752.042.716-.61 3.774.863.633-.569-1.055-2.845.253-.675z" style="fill:#7b6c2c;fill-opacity:1;fill-rule:nonzero;stroke:none;stroke-width:.424478"/><path d="M13.36 15.875c-.125 0-.27-.02-.443-.062l-.35-.08c-.663-.151-1.107-.253-1.243-.3l-.296-.098c-.277-.092-.522-.173-.76-.262a.994.994 0 0 0-.362-.062l-.083.002a.484.484 0 0 0-.063.005c-.135.498-.764.59-1.111.64a11.923 11.923 0 0 1-3.089 0c-.353-.051-1-.145-1.113-.64-.018 0-.04-.004-.066-.005l-.077-.002c-.137 0-.256.02-.363.06-.238.09-.483.172-.722.251l-.334.111c-.138.048-.58.149-1.242.3l-.351.08a1.92 1.92 0 0 1-.442.062c-.39 0-.817-.22-.846-.836a2.66 2.66 0 0 1 .338-1.457c.033-.062.21-.392.331-.758.16-.477.103-.636.102-.638-.06-.058-.148-.2-.136-.425.012-.219.12-.664.835-2.32.432-.998 1.026-2.3 1.719-3.767a199.151 199.151 0 0 1 1.746-3.605C5.789.362 5.854.31 5.952.23 6.074.127 6.25.064 6.52.03c.329-.042.84-.04 1.176 0 .297.038.468.104.592.224.072.07.142.137 1.033 1.932.55 1.107 1.217 2.487 1.83 3.788a113.906 113.906 0 0 1 1.734 3.821c.239.563.416 1.01.527 1.332.066.19.109.338.133.451.024.112.086.406-.124.627.007 0-.036.167.116.617.122.367.298.697.332.761.25.444.363.934.338 1.456-.03.615-.457.835-.846.835m-3.454-1.616c.228 0 .434.036.628.108.237.09.48.17.723.251l.309.104c.116.039.812.196 1.186.282l.344.078c.204.05.335.032.339.03 0 0 .016-.026.02-.11a1.895 1.895 0 0 0-.243-1.05c-.091-.163-.849-1.554-.396-2.192-.145-1.028-4.562-10.164-5.05-10.952A3.007 3.007 0 0 0 7.1.751c-.414 0-.639.045-.684.067-.301.424-4.882 9.852-5.022 10.941.454.638-.304 2.03-.395 2.191a1.89 1.89 0 0 0-.244 1.052c.004.084.02.11.022.112h.001c.002 0 .135.018.336-.032l.344-.079c.374-.085 1.071-.242 1.187-.281l.308-.104c.243-.08.487-.162.723-.25.195-.073.4-.109.629-.109l.11.002c.33.017.67.095.758.534.159.082.777.2 1.935.212 1.154-.012 1.772-.13 1.93-.212.088-.439.427-.517.75-.534z" style="fill:#c4a831;fill-opacity:1;fill-rule:nonzero;stroke:none;stroke-width:.424478"/><path d="M12.298 11.798v-.047l-.001-.02v-.01l-.001-.006.002-.029a.15.15 0 0 0 0-.02v-.004l-.001-.035-.001-.018v-.008l-.002-.032-.013-.035-.007-.019a.323.323 0 0 0-.02-.057l-.006-.01c-.007-.018-.013-.036-.022-.052a.771.771 0 0 0-.075-.105h-.002a.043.043 0 0 1-.007-.01c-.031-.033-.062-.069-.097-.096-.622-.638-3.33-.342-3.87.055 0 0 0 .099.016.157 1.739-.557 3.397-.278 3.397.17 0 .565-2.006 1.023-4.483 1.025-2.477-.001-4.483-.46-4.483-1.025 0-.448 1.658-.727 3.396-.17.017-.058.017-.157.017-.157-.54-.396-3.248-.693-3.87-.055l-.008.007h-.001l-.016.015h-.002a.802.802 0 0 0-.155.188c-.009.017-.016.035-.023.052l-.004.01a.323.323 0 0 0-.021.057l-.007.02-.012.034a.373.373 0 0 0-.003.032v.026l-.002.035v.025c0 .01.002.018.003.028v.006l-.001.01v.02l-.002.041v.033c.002.044.01.087.019.132.012.053.031.104.052.154.044.096.102.186.167.261.065.078.134.146.206.208.073.063.148.12.223.172.15.103.304.192.461.268.313.155.638.275.968.377.165.052.333.093.501.135l.254.059c.085.016.17.034.256.049l.258.044c.086.014.172.028.259.04a12.021 12.021 0 0 0 1.52.101h.099a12.03 12.03 0 0 0 1.52-.102c.087-.01.174-.025.26-.039.086-.013.172-.029.258-.044.085-.015.17-.033.256-.05.085-.017.17-.038.254-.058.168-.042.336-.083.501-.135a6.47 6.47 0 0 0 .968-.377c.156-.076.311-.165.46-.268.076-.053.151-.11.224-.172.072-.062.141-.13.206-.208.064-.075.123-.165.167-.261.02-.05.04-.101.052-.154.008-.045.016-.088.018-.132v-.028" style="fill:#c4a831;fill-opacity:1;fill-rule:nonzero;stroke:none;stroke-width:.424478"/><path d="M4.535 10.621h.01l.006-.008a.832.832 0 0 0 .077-.094l.017-.027-.03-.01c-.643-.2-1.062-.625-1.144-.94-.02-.073-.028-.176.038-.246.274-.29 1.361-.18 2.3.568.417.332.743.86.973 1.576a1.731 1.731 0 0 0-.006.385 1.2 1.2 0 0 0 .033.183 1.008 1.008 0 0 0 .138.306l.038.046.028.034.02.027.003-.004.003.004.02-.027.029-.034a.86.86 0 0 0 .038-.047.89.89 0 0 0 .137-.304 1.272 1.272 0 0 0 .042-.354 1.81 1.81 0 0 0-.014-.215c.23-.716.555-1.244.972-1.576.94-.748 2.026-.858 2.3-.568.067.07.058.173.039.246-.082.315-.501.74-1.144.94l-.03.01.017.027a.815.815 0 0 0 .077.094l.006.007.01.001c.271.022.834-.299 1.16-.66.206-.23.297-.448.263-.632 0-.022-.006-.046-.01-.07l-.003-.015v-.001l-.001-.008a.62.62 0 0 0-.029-.086l-.015-.03-.006-.013a.396.396 0 0 0-.023-.039l-.016-.028c-.001-.004-.004-.007-.007-.01l-.017-.019h.001l-.032-.035-.012-.012-.101-.114.012.021-.056-.048a1.03 1.03 0 0 0-.296-.155 1.23 1.23 0 0 0-.183-.044 1.735 1.735 0 0 0-.472-.007 2.613 2.613 0 0 0-.527.118 2.87 2.87 0 0 0 .677-1.995l-.004-.081-.008-.077a1.81 1.81 0 0 0-.02-.157l-.01-.059c-.001-.01-.002-.019-.005-.028l-.026-.092a4.046 4.046 0 0 0-.215-.546 4.301 4.301 0 0 0-.599-.916c-1.51-1.777-1.524-2.805-1.51-2.993.003-.047-.028-.058-.04-.06l-.043-.006-.014.04c-.013.041-.029.099-.049.18l-.003.005v.007l-.015.063a2.762 2.762 0 0 0 .185 1.707 3.065 3.065 0 0 0 .623.91c.028.028.057.057.095.09l.078.07c.096.09.19.195.29.321.182.235.338.511.463.82.07.174.123.33.161.476l.013.053.004.041c.005.04.01.081.01.124l.004.062v.064a2.32 2.32 0 0 1-1.637 2.217l-.067.02-.1.024-.127.026h-.002l-.063.008a2.013 2.013 0 0 1-1.189-.201 2.046 2.046 0 0 1-.983-1.102c-.016-.039-.029-.08-.042-.122l-.007-.023a1.003 1.003 0 0 1-.02-.07l-.009-.036-.009-.043a1.89 1.89 0 0 1 .132-1.215 1.92 1.92 0 0 1 .363-.521c.152-.154.328-.28.523-.376.091-.044.194-.082.303-.113l.03-.008.048-.013.084-.018.08-.013c.017-.002.033-.005.05-.006l.03-.004a1.697 1.697 0 0 1 1.807 1.301l.006.03.01.047.013.083c.028.208.012.419-.046.61a1.5 1.5 0 0 1-.724.896 1.444 1.444 0 0 1-.392.144l-.064.012-.077.012-.064.006a.625.625 0 0 1-.04 0L7 8.31a1.205 1.205 0 0 1-.387-.054 1.287 1.287 0 0 1-.913-1.04c-.044-.29.032-.59.21-.825a1.12 1.12 0 0 1 .578-.402l.044-.012.035-.008a1.032 1.032 0 0 1 .392-.01 1 1 0 0 1 .335.123 1.055 1.055 0 0 1 .48.637l.011.044.001.002.003.016.003.016c.004.018.006.038.008.058l.002.012c.01.097.006.19-.01.276a1.01 1.01 0 0 1-.736.786l-.072.02.026.143.075-.007a1.225 1.225 0 0 0 .327-.08 1.224 1.224 0 0 0 .706-.78 1.25 1.25 0 0 0 .056-.377V6.84a1.217 1.217 0 0 0-.01-.146l-.006-.046a1.712 1.712 0 0 0-.05-.21 1.442 1.442 0 0 0-.203-.408 1.48 1.48 0 0 0-1.412-.59 1.645 1.645 0 0 0-1.34 1.179 1.675 1.675 0 0 0-.047.68l.013.083c.003.022.01.052.018.085a.975.975 0 0 0 .023.087 1.842 1.842 0 0 0 .173.405 1.79 1.79 0 0 0 1.142.839 1.8 1.8 0 0 0 .65.024l.068-.012.11-.024.093-.026a1.93 1.93 0 0 0 1.026-.759 1.901 1.901 0 0 0 .3-1.423l-.017-.085-.016-.062-.008-.03a2.01 2.01 0 0 0-.215-.511 2.09 2.09 0 0 0-1.89-1.034 2.304 2.304 0 0 0-1.906 1.166 2.335 2.335 0 0 0-.272.744 2.372 2.372 0 0 0-.003.793l.007.046.017.08.016.07.004.014c.015.058.03.117.05.175a2.501 2.501 0 0 0 .424.79 2.604 2.604 0 0 0-.533-.12 1.695 1.695 0 0 0-.472.008 1.05 1.05 0 0 0-.38.13 1.03 1.03 0 0 0-.099.069c-.019.015-.038.03-.056.047l.012-.02-.101.113-.011.012-.033.036a.189.189 0 0 0-.022.029l-.016.026a.326.326 0 0 0-.023.04l-.007.014a.378.378 0 0 0-.043.116l-.005.025c-.005.023-.01.047-.011.07-.034.184.057.403.263.631.326.362.89.683 1.16.66m2.596-.18-.014.023-.043.083-.028.056a.9.9 0 0 0-.01.02l-.009-.02-.028-.056-.043-.084-.014-.023a2.92 2.92 0 0 0-.122-.2 3.633 3.633 0 0 0-.45-.562 2.658 2.658 0 0 0 .842.067c.03-.001.061-.006.09-.008l.073-.008a.11.11 0 0 0 .025-.004l.133-.023.146-.033.046-.013a3.755 3.755 0 0 0-.594.787" style="fill:#c4a831;fill-opacity:1;fill-rule:nonzero;stroke:none;stroke-width:.424478"/></svg>