<svg width="42.335" height="60.001" viewBox="0 0 11.201 15.875" xmlns="http://www.w3.org/2000/svg"><path d="M9.697 15.44h-8.28a.956.956 0 0 1-.956-.955V1.474c0-.528.428-.956.956-.956h8.28c.528 0 .956.428.956.956v13.01a.956.956 0 0 1-.956.956" style="fill:#cec499;fill-opacity:1;fill-rule:nonzero;stroke:none;stroke-width:.34339"/><path d="m9.697 15.492-.545.006c-.356.004-.878.005-1.543.033-.664.018-1.47.067-2.395.13-.926.055-1.97.136-3.108.186l-.432.018c-.15-.001-.261.03-.519-.01a1.404 1.404 0 0 1-1.154-1.42l.002-.472.009-.965c.02-1.305.11-2.68.173-4.104.08-1.424.125-2.895.12-4.39-.001-.747-.016-1.5-.035-2.256L.248 1.68l-.006-.142-.002-.082v-.071c.008-.118.029-.245.07-.352C.467.584.92.247 1.417.238L3.69.135 5.947.068 8.17.026 9.26.007l.27-.005L9.667 0l.165.005a1.489 1.489 0 0 1 1.36 1.367l.006.103v.196c0 .35 0 .697.002 1.04.006.684-.001 1.354-.013 2.007a83.266 83.266 0 0 1-.102 3.677c-.06 1.139-.143 2.183-.202 3.108a66.076 66.076 0 0 0-.133 2.396c-.025.334.012.62-.079.903-.089.264-.266.438-.425.537-.331.194-.555.141-.548.154m0-.103c-.006-.01.196.03.484-.15a.892.892 0 0 0 .36-.48c.074-.215.013-.535.015-.861-.02-.665-.069-1.47-.132-2.396-.06-.925-.142-1.97-.202-3.108a83.498 83.498 0 0 1-.103-3.677 78.511 78.511 0 0 1-.013-2.008l.002-1.038v-.197l-.001-.029a.418.418 0 0 0-.147-.305.512.512 0 0 0-.19-.096l-.104-.007-.135-.002-.27-.005-1.092-.02L5.947.97 3.69.902 1.416.8a.698.698 0 0 0-.669.41.737.737 0 0 0-.06.2l-.006.07-.003.06-.006.142-.022.567c-.02.757-.033 1.51-.035 2.257C.61 6 .655 7.471.735 8.895c.062 1.423.153 2.799.173 4.104l.009.964c0 .159.002.316.003.472a.514.514 0 0 0 .395.558c.034.014.22.02.358.025l.431.017c1.14.05 2.183.131 3.108.187.926.062 1.732.111 2.396.13.665.028 1.187.03 1.542.033l.546.006" style="fill:#231f20;fill-opacity:1;fill-rule:nonzero;stroke:none;stroke-width:.34339"/></svg>