<svg width="86.063" height="60.003" viewBox="0 0 22.771 15.876" xmlns="http://www.w3.org/2000/svg"><path d="M13.582 15.671c-.06 0-.12 0-.18-.002a.65.65 0 0 1-.289-.069c-.125-.065-.17-.167-.135-.303a.354.354 0 0 1 .139-.208l.027-.02a.744.744 0 0 0 .153-.128c.038-.049.081-.093.125-.136.033-.033.066-.066.095-.104a.377.377 0 0 1 .143-.117c.03-.012.056-.033.082-.051.03-.02.058-.04.089-.057.036-.035.13-.143.15-.172l.011-.018c.01-.015.024-.037.027-.045a.269.269 0 0 1 .05-.11c.04-.05.074-.112.11-.177.035-.068.073-.137.122-.205.003-.006.007-.035.01-.053l.01-.066c.01-.045.012-.092.015-.138.004-.06.008-.119.019-.177a2.23 2.23 0 0 0 .035-.37.463.463 0 0 1 .068-.231c.012-.042.028-.156.03-.19.003-.1.029-.19.051-.27l.015-.054a.627.627 0 0 1 .01-.027 58.638 58.638 0 0 1-.006-.546v-.058c-.005-.72-.01-.875-.012-.903-.005-.05.001-.13.013-.278.008-.104.02-.26.016-.308a7.285 7.285 0 0 1-.027-.65l-.003-.133a2.648 2.648 0 0 1-.003-.146l-.002-.123a2.496 2.496 0 0 1 0-.23l.011-.117c-.144.325-.245.88-.336 1.38-.16.876-.271 1.424-.55 1.624-.334.24-.611.478-.825.707.045 1.458.091 1.876.115 1.995l.13.65-.66.078a8.225 8.225 0 0 1-.732.043 11.86 11.86 0 0 1-.246.003c-.093 0-.165-.002-.223-.006l-.69-.047.131-.68c.012-.06.039-.296.041-1.21-.52-.236-1.304-.614-1.371-.676a.796.796 0 0 1-.25-.468.683.683 0 0 0-.087-.12c-.026-.025-.055-.048-.084-.07-.008-.009-.017-.014-.026-.02a6.335 6.335 0 0 0-.26-.055 3.769 3.769 0 0 1-.01.131c-.01.11-.01.228-.002.358.005.085 0 .162-.006.237-.003.041-.006.082-.006.124-.001.059-.004.118-.007.177l-.006.134v.06c-.001.066-.003.14-.015.216a.732.732 0 0 0-.016.15v.05c0 .057-.002.232.01.303l.004.022-.001.04v.069c.003.027.004.055.004.083l.02.118c.006.043.011.077.011.087.01.123.035.207.082.273.062.089.074.188.032.273a.256.256 0 0 1-.228.139c-.048.002-.068.01-.087.027a.48.48 0 0 1-.286.096c-.027.003-.044.003-.06.003l-.059.003c-.06 0-.203-.02-.252-.209a.375.375 0 0 1 .043-.288c.008-.05.022-.191.044-.572a5.886 5.886 0 0 1-.484-.054c-.044-.008-.088-.012-.133-.02a21.807 21.807 0 0 1-.68-.114.977.977 0 0 0-.187-.015l-.084.002a.451.451 0 0 1-.239-.06 2.32 2.32 0 0 0-.172-.087l-.05-.024c-.061.01-.128.018-.195.026a.449.449 0 0 1-.046.003h-.09l-.079-.07c-.067-.073-.06-.161-.059-.194a.478.478 0 0 1 .077-.244c.009-.027.022-.077.037-.136l-.134.126a2.2 2.2 0 0 0-.145.146.636.636 0 0 1-.174.139l-.05.147a82.37 82.37 0 0 0-.26 1.07c.022.004.045.01.069.016l.036.009.125.027c.092.02.183.042.275.06.145.03.203.138.196.233-.004.062-.017.25-.559.285a2.21 2.21 0 0 1-.115.003c-.049 0-.098 0-.151.008a3.855 3.855 0 0 1-.36.025c-.213.009-.655.03-.737.053a.333.333 0 0 1-.114.02.382.382 0 0 1-.333-.213.289.289 0 0 1 .023-.31l.031-.04.048-.02a1.79 1.79 0 0 0 .297-.31c.047-.106.1-.21.153-.315l.285-.559c.02-.037.038-.076.056-.114.04-.082.079-.164.124-.242.014-.024.025-.049.037-.073.024-.05.05-.102.082-.149a.208.208 0 0 0 .02-.06c.034-.142.065-.285.095-.428.008-.034.182-.841.252-.98l.039-.077c.03-.06.06-.12.092-.178.038-.068.07-.14.104-.21l.069-.146c.183-.37.211-.459.215-.478 0-.002.042-.207.066-.281.042-.132.086-.263.13-.393l.044-.131c.012-.067.051-.172.148-.416.033-.085.079-.2.086-.229l.015-.056c.024-.095.047-.184.058-.271.006-.06.043-.178.127-.437.02-.06.036-.11.04-.128.02-.072.043-.144.068-.214a.788.788 0 0 0-.097-.011 1.019 1.019 0 0 1-.138.02c-.051.006-.095.01-.131.022a.398.398 0 0 1-.232.008c-.016-.005-.458-.205-.529-.324-.035-.059-.256-.285-.374-.405a4.152 4.152 0 0 1-.233-.248 2.02 2.02 0 0 1-.172-.316 2.8 2.8 0 0 0-.083-.166.707.707 0 0 1-.126-.32c-.014-.08-.007-.152-.001-.21l.005-.056c.004-.098.03-.183.051-.26l.021-.075a.24.24 0 0 1 .235-.193.373.373 0 0 1 .336.309l.008.037a.892.892 0 0 1 .019.113c.002.033.003.063.01.093.015.049.15.438.192.54.06.063.228.216.265.243l.145.08c.06-.01.209-.05.572-.18.058-.021.096-.032.101-.033-.006 0 .002-.009.011-.016l.02-.016c-.02-.102-.14-.809-.095-1.208a1.124 1.124 0 0 1-.086-.074c-.007-.006-.636-.638-.7-.793a.773.773 0 0 1-.051-.214l-.087.03c-.138.049-.896.134-1.176.134a.673.673 0 0 1-.126-.009 16.448 16.448 0 0 1-.275-.052c-.213-.042-.57-.11-.648-.117a5.827 5.827 0 0 1-.297-.033.157.157 0 0 0-.062.01 3.088 3.088 0 0 1-.37.09c-.132.028-.354.076-.398.092a1.427 1.427 0 0 0-.375.283c-.024.026-.05.05-.076.073a.426.426 0 0 0-.07.072.24.24 0 0 1-.21.112H.596a.307.307 0 0 1-.09-.01c-.166-.045-.23-.108-.275-.272a.568.568 0 0 1-.021-.12c-.018-.312.015-.367.032-.396a.68.68 0 0 1 .241-.246c.113-.068.23-.125.355-.174.023-.01.073-.023.333-.096l.143-.04c-.077-.12-.13-.202-.15-.242a1.34 1.34 0 0 1-.06-.143c-.018-.05-.033-.093-.054-.125a.933.933 0 0 0-.16-.032.416.416 0 0 1-.291-.252.246.246 0 0 1 .08-.265L.745 2.4l.082.008c.395.032.48.084.512.103.46.276.67.58.781.742l.029.041.063.008c.043.005.087.009.13.016.02 0 .04-.003.058-.006a1.049 1.049 0 0 1 .17-.014c.141 0 .275.024.398.07.102.017.637.048.864.048h.044a3.003 3.003 0 0 0 .578-.09l-.035-.07a1.934 1.934 0 0 0-.29-.163.451.451 0 0 0-.136-.021.675.675 0 0 1-.265-.066l-.084-.039a2.317 2.317 0 0 1-.239-.119.75.75 0 0 1-.082-.055 2.969 2.969 0 0 1-.421-.45l-.264-.084-.33-.1c-.137-.042-.204-.135-.197-.278a.249.249 0 0 1 .113-.2.455.455 0 0 0 .07-.055.242.242 0 0 1 .277-.049.874.874 0 0 0 .186.05l.032.005c.055.01.108.023.162.037a.763.763 0 0 1 .228.114c.067.044.115.087.158.126l.087.077c.092.08.178.157.27.224.04.027.075.06.111.092l.05.044c.03.025.053.032.07.033a1.567 1.567 0 0 1-.043-.097.73.73 0 0 0-.145-.145.795.795 0 0 1-.303-.262c-.05-.065-.108-.137-.151-.224-.06-.121-.035-.21-.004-.264.026-.043.09-.118.228-.122.067-.024.56-.176.712-.176h.005l.01-.003a.27.27 0 0 1 .09-.017c.07 0 .13.027.176.077.047.05.07.119.063.193a.495.495 0 0 1-.01.063c-.008.063-.036.17-.168.214.016.015.03.033.044.05.038.057.072.106.1.165l.03.069c.128.276.247.538.405.78.01.016.033.051.196.43a.28.28 0 0 1 .027-.007c.058-.018.873-.149.955-.149a.446.446 0 0 0 .104-.02c.022-.006.044-.012.067-.016a.384.384 0 0 1 .298.049 1.19 1.19 0 0 0 .546.182c.054 0 .105-.011.154-.035a.26.26 0 0 1-.008-.11c-.002 0-.006-.009-.017-.025a.757.757 0 0 1-.067-.143.458.458 0 0 0-.032-.072 1.553 1.553 0 0 1-.09-.159c-.02-.036-.038-.073-.06-.108-.056-.087-.106-.177-.157-.268l-.089-.16c-.108-.068-.143-.143-.155-.196a.286.286 0 0 1 .053-.23.446.446 0 0 1 .073-.082c.154-.136.316-.222.493-.262a.56.56 0 0 1 .213-.008.49.49 0 0 0 .066.005c.094 0 .19-.028.298-.088a1.887 1.887 0 0 1 .468-.323L8.338.87l.056-.003c.062 0 .122.026.163.072a.227.227 0 0 1 .054.181.411.411 0 0 1-.101.22 1.689 1.689 0 0 1-.34.31c-.03.023-.06.045-.09.07-.074.065-.154.11-.225.151l-.03.017a.78.78 0 0 1-.24.087c.067.127.14.245.217.354.024.035.036.07.043.089.03.075.06.14.091.206.025.054.05.107.073.161.038.09.091.176.147.266.033.054.065.107.095.162.12.024.412.072.577.1l.155.026.144.165-.118-.168c.07-.048.14-.05.174-.051l.034-.001c.093 0 .18.012.263.024l.047.008c.09.012.173.056.246.129a.693.693 0 0 1 .18.297c.01.034.021.067.033.1l.036.105c.016.053.067.174.087.216.048.066.094.162.142.276l.016-.05c.008-.02.016-.041.02-.063l.011-.064c.016-.083.032-.168.055-.25a.294.294 0 0 1 .11-.166l.163-.118a.365.365 0 0 1 .155-.06c.038-.007.187-.058.277-.09a1.79 1.79 0 0 1 .368-.099l.06-.012c.057-.012.36-.101.43-.135a.362.362 0 0 1 .116-.056c.041-.118.104-.218.16-.307l.021-.034c.061-.098.113-.209.157-.304l.064-.146.083-.187c.033-.069.076-.13.114-.182l.016-.023c.028-.041.053-.085.077-.13l.03-.056a.953.953 0 0 1-.354-.159c-.186-.13-.37-.258-.529-.432a.6.6 0 0 1-.12-.18c-.01-.025-.035-.082-.022-.155a.224.224 0 0 1 .219-.186h.035l.041.014c.02.008.037.015.053.024.108.056.2.119.288.179l.03.021c.021.016.039.03.054.046.097.1.21.145.358.145.018 0 .038 0 .056-.002a1.14 1.14 0 0 1 .083-.003c.101 0 .192.017.277.05.124.05.24.12.343.208a.471.471 0 0 1 .102.12.278.278 0 0 1 .034.224.266.266 0 0 1-.108.147c-.038.047-.126.194-.18.283-.051.083-.1.164-.136.218a.477.477 0 0 1-.108.19c-.006.008-.017.036-.024.055-.031.08-.065.152-.105.22l-.003.02c-.004.03-.008.059-.01.088a.348.348 0 0 0 .193.036c.173-.016.347-.08.531-.192a.324.324 0 0 1 .252-.043c.033.008.078.026.21.077.125.047.385.148.448.157a.282.282 0 0 1 .242.187.346.346 0 0 1-.011.312.239.239 0 0 1-.15.111l-.035.011c-.049.021-.056.024-.578.032-.121.002-.225.003-.253.006l-.116.012c-.151.017-.308.034-.468.037l-.05.001a1.2 1.2 0 0 0-.22.015.866.866 0 0 0-.175.056 1.646 1.646 0 0 1-.006.08l-.002.037c-.01.148.001.293.034.431.013.06.03.207.06.507.015.136.032.3.043.374.113-.084.321-.213.731-.442l.07-.039a1.93 1.93 0 0 1 .125-.066c.059-.028.115-.072.176-.118.035-.027.069-.054.105-.079.03-.02.032-.032.034-.04a.454.454 0 0 1 .16-.256l.033-.03c.03-.028.066-.063.114-.093a.467.467 0 0 1 .128-.06c.14-.089.287-.112.418-.133a.392.392 0 0 0 .143-.052.188.188 0 0 1 .075-.034h-.001c-.005 0 .008-.021.018-.036.079-.116.153-.226.21-.34.017-.034.036-.066.055-.099.056-.095.105-.184.155-.273.045-.082.09-.163.136-.243.074-.129.118-.27.164-.43.04-.143.107-.276.196-.395.094-.125.203-.223.31-.317.088-.079.273-.204.436-.314.088-.06.163-.11.188-.131.12-.116 1.224-.474 1.472-.474.02 0 .038.002.053.003.077.012.178.031.277.077 0-.001.004-.002.01-.002h.01a.42.42 0 0 1 .05.005c.054.006.104.012.155.015.025.002.05.002.074.002.086 0 .172-.006.257-.014.104-.085.215-.142.312-.186.134-.06.266-.13.395-.207.095-.056.184-.103.271-.143a.806.806 0 0 1 .264-.075.545.545 0 0 0 .063-.02l.02-.008a.489.489 0 0 1 .348.004c.015.006.04.015.067.032.126.08.158.216.082.345a.34.34 0 0 1-.185.152 3.45 3.45 0 0 0-.249.102c-.043.02-.086.04-.128.063-.062.037-.124.045-.166.052-.01.001-.02.002-.029.005-.025.01-.177.098-.277.156-.187.107-.315.18-.391.21l-.034.013c-.048.019-.09.035-.12.058a.485.485 0 0 1-.187.078.326.326 0 0 0-.039.01.861.861 0 0 1-.27.042c-.157 0-.303-.038-.427-.074a1.596 1.596 0 0 1-.23-.09c-.112.014-.43.107-.505.137-.061.023-.123.064-.189.107l-.022.016c-.125.08-.26.156-.416.23l-.01.007-.029.01c-.125.04-.226.118-.342.225l-.067.062c-.052.046-.104.092-.151.142-.018.072-.048.132-.072.183l-.022.046c-.062.137-.272.77-.287.868a1.86 1.86 0 0 1-.005.049h.036a19.834 19.834 0 0 0 .478 0 .769.769 0 0 0 .187-.026 6.89 6.89 0 0 1 .287-.07.787.787 0 0 0 .132-.042c.063-.025.128-.045.193-.065.047-.013.094-.028.14-.045.022-.008.04-.02.06-.031l.027-.016c.059-.034.12-.062.18-.09.063-.03.124-.058.176-.09.164-.103.337-.163.5-.212.066-.02.13-.043.195-.066l.074-.025c.214-.074.4-.115.584-.129.047-.003.095-.009.143-.013.055-.006.11-.013.166-.016l.147-.006.094-.003c.082-.005.164-.012.245-.024a3.37 3.37 0 0 1 .39-.023c.03-.006.097-.014.324-.014.15 0 .31.003.385.006.13.005.261.032.391.081.053.02.32.19.4.242a.321.321 0 0 1 .076.468c-.063.077-.148.085-.176.088l-.053.006c-.115.01-.233.023-.356.023-.057 0-.114-.003-.172-.009-.038 0-.184.019-.29.032-.15.018-.244.03-.296.03h-.048l-.019-.009-.245-.002-.345.003a2.187 2.187 0 0 0-.648.116 5.43 5.43 0 0 0-.258.14c-.125.071-.145.082-.171.09-.026.01-.052.018-.078.026-.066.021-.123.038-.169.067a1.66 1.66 0 0 1-.325.153c-.108.038-.214.088-.325.14a6.458 6.458 0 0 1-.207.095c-.225.097-.456.183-.68.266l-.1.037c-.04.015-.079.033-.118.052-.278.144-.52.241-.76.307a2.71 2.71 0 0 1-.348.07c-.059.106-.1.226-.132.378-.012.06-.029.12-.045.18a3.348 3.348 0 0 0-.036.145.38.38 0 0 1-.063.136.339.339 0 0 0-.027.056c.077-.03.156-.077.25-.14l.041-.03a1.278 1.278 0 0 1 .513-.218c.104-.016.506-.065.592-.072l.116-.009c.106-.008.213-.015.318-.027.081-.009.162-.02.242-.03a.365.365 0 0 1 .222.034.12.12 0 0 0 .057.014c.09 0 .18.028.265.082.031.02.07.036.115.05l.06.017c.077.022.153.045.226.075.03.012.063.018.105.018.042 0 .084-.006.127-.01a.829.829 0 0 1 .122-.01h.03a.462.462 0 0 1 .372.23.212.212 0 0 0 .047.057c.06.032.093.076.113.103a.595.595 0 0 0 .18.112.523.523 0 0 1 .317.408l.02.127a.645.645 0 0 1 0 .182.48.48 0 0 0 .01.109l.005.035a1.859 1.859 0 0 0 .02.11.25.25 0 0 1-.206.293l-.019.003-.035.002a.326.326 0 0 1-.292-.193c-.04-.088-.049-.175-.056-.245l-.009-.074a.552.552 0 0 1-.052-.074l-.012-.019-.05-.07-.044-.06c-.001 0-.014-.005-.057-.008l-.011-.205-.012.205-.043-.001a.498.498 0 0 1-.07-.009c.078.121.156.27.198.442.006.024.01.049.013.073l.002.017.046.067-.024.098a.425.425 0 0 0 .004.073c.005.048.01.107.002.172a.73.73 0 0 0-.005.077c-.001.045-.003.089-.01.133-.015.115-.094.98-.078 1.105a.458.458 0 0 0 .031.085 21.767 21.767 0 0 0 .107.251c.016.035.06.132.002.241-.03.06-.07.142-.164.19a.257.257 0 0 1-.12.03.274.274 0 0 1-.178-.07.337.337 0 0 1-.106-.15c-.005-.017-.02-.04-.035-.067a.864.864 0 0 1-.056-.103l-.017-.04c-.034-.074-.076-.166-.086-.277a.845.845 0 0 1-.03-.386l.01-.069c.016-.129.033-.262.061-.396.02-.097.035-.2.047-.326.005-.048.006-.095.007-.143.002-.057.004-.115.01-.172a.784.784 0 0 0-.005-.14 17.663 17.663 0 0 0-.396-.44 7.07 7.07 0 0 0-.504-.128c.081.166.114.328.142.474l.012.06c.016.077.031.155.042.233.005.035.016.069.026.102l.022.075c.01.043.026.085.04.127l.036.108c.041.136.06.273.055.408a.356.356 0 0 1-.024.105c-.01.032-.036.115-.04.142a1.715 1.715 0 0 1-.038.202c-.002.018.002.028.024.045a.456.456 0 0 1 .172.227c.03.09.065.156.113.208.04.046.07.101.087.164l.091.33c.015.055.025.11.03.17l.002.022c.004.044.007.08.016.107a.416.416 0 0 1 .022.151.216.216 0 0 0 .024.103.82.82 0 0 1 .071.254c.013.1.035.199.067.292.036.107.062.203.08.293.015.072.047.141.076.2.054.109.098.22.136.317.027.069.063.136.116.212.035.05.067.105.099.159.02.033.038.066.06.1a.35.35 0 0 1 .05.227c-.005.05 0 .107.003.166l.006.116c.001.027.002.073.009.081l.023.034.009.04c.024.112.07.221.12.337l.046.108c.065.16.112.325.153.48a.442.442 0 0 0 .028.08c.014.03.026.062.036.092l.008.022c.009.026.016.032.016.032.062.026.12.057.179.089.04.022.081.044.124.063.059.027.118.052.178.076.25.098.836.327 1.068.438.145.068.232.169.26.299a.273.273 0 0 1-.145.316.417.417 0 0 1-.276.045 1.052 1.052 0 0 0-.142-.012l-.059-.003c-.1-.008-.187-.03-.268-.054a12.765 12.765 0 0 0-.644-.164 2.321 2.321 0 0 0-.542-.06l-.053.001-.367.005a.063.063 0 0 0-.03.008 3.47 3.47 0 0 1-.218.085c-.027.01-.14.063-.276.127-.653.304-.701.317-.769.317h-.013l-.014-.002c-.046-.006-.125-.012-.207-.019-.251-.02-.321-.027-.372-.047l-.038-.016c-.044-.017-.088-.036-.134-.048a.284.284 0 0 1-.07-.027c-.13-.03-.728-.064-.882-.064a2.082 2.082 0 0 0-.144.01 2.314 2.314 0 0 1-.186.008 2.416 2.416 0 0 0-.254.039 1.378 1.378 0 0 1-.3.035c-.075 0-.15-.008-.222-.023l-.048-.01-.184-.043a1.08 1.08 0 0 0-.341-.032c-.018.001-.03.005-.034.006a7.267 7.267 0 0 0-.28.152c-.103.057-.2.111-.242.131a.35.35 0 0 1-.126.034c-.135.015-.27.017-.394.017zm5.279-1.64c.155 0 .3.005.441.015a6.449 6.449 0 0 1-.155-.448 4.262 4.262 0 0 1-.054-.201l-.02-.08a.111.111 0 0 0-.02-.046l-.064-.073a1.407 1.407 0 0 0-.186-.195.427.427 0 0 1-.091-.106c-.026-.041-.056-.078-.086-.116l-.067-.087-.034-.024a.51.51 0 0 1-.143-.144c-.222-.17-.536-.53-.55-.581.004.018.011.03.012.03a.55.55 0 0 1-.027-.038 9.68 9.68 0 0 1-.354-.68c-.005-.008-.012-.015-.02-.024a.952.952 0 0 1-.124-.186c-.016-.032-.123-.198-.2-.32-.1-.154-.205-.318-.254-.404-.242-.427-.41-.882-.558-1.31a21.304 21.304 0 0 1-.208-.651v.013c.003.102.005.199.02.29.009.043.093.407.109.458l.014.044c.013.037.025.074.035.112l.027.112c.033.137.134.552.163.62.018.026.04.067.056.113.033.084.445 1.81.447 1.823.023.09.331.907.409 1.058.04.078.08.154.125.229.048.081.114.155.184.233a.444.444 0 0 0 .184.124c.07.026.133.061.187.092.029.015.057.031.086.045l.01.005.026.017c.042.026.154.097.217.13.08.041.166.074.257.109l.087.033a.12.12 0 0 0 .04.01zm-12.225-.999c.12.005.233.027.342.048l.191.035.24.045c.036.008.126.021.222.036l.249.041.039-.436.006-.079c.01-.142.02-.276.013-.41-.007-.136-.003-.27.001-.4.002-.054.004-.107.004-.16 0-.02-.006-.21-.01-.247-.01-.051-.018-.118-.025-.185-.006-.062-.012-.123-.026-.184a1.931 1.931 0 0 1-.047-.306 3.803 3.803 0 0 1-.295-.533l-.03.043c-.057.077-.111.154-.166.232-.06.087-.12.173-.183.258l-.046.062c-.06.081-.12.162-.174.247l-.025.04a1.49 1.49 0 0 1-.082.125h.001c.002 0-.01.034-.023.123a3.975 3.975 0 0 1-.107.455c-.028.097-.089.269-.128.383l-.034.097a3.12 3.12 0 0 0-.022.163l-.01.079a4.073 4.073 0 0 0-.037.43 1.9 1.9 0 0 1 .104-.003l.058.001m9.876-5.704a3.898 3.898 0 0 1 .113.446c.013.092.053.185.094.284l.02.046c.048.117.092.223.126.338.045.084.074.155.096.215.162.435.337.896.552 1.327.045.09.192.395.192.395a.123.123 0 0 0 .014.02c.11.134.21.273.31.406l.11.152c.03.04.053.08.07.12.022.05.051.101.094.16l.015.02a.683.683 0 0 1 .086.143c.036.082.088.158.14.228.022.03.042.061.063.092.027.039.053.079.083.114l.13.154a4.723 4.723 0 0 0-.11-.56c-.019-.078-.038-.156-.055-.235l-.092-.415c-.025-.113-.049-.227-.072-.342l-.036-.176a1.924 1.924 0 0 1-.041-.323.472.472 0 0 0-.068-.207.455.455 0 0 0-.065-.078l-.039-.043a.463.463 0 0 0-.088-.085 1.12 1.12 0 0 1-.155-.138 2.733 2.733 0 0 0-.081-.077c-.126-.106-.22-.42-.174-.58l.016-.052c.007-.022.015-.045.02-.068.017-.09.098-.298.127-.346a.307.307 0 0 0 .028-.106.066.066 0 0 0-.008-.046 1.057 1.057 0 0 0-.158-.18.494.494 0 0 1-.14-.223 1.325 1.325 0 0 1-.043-.222l-.014-.113a1.786 1.786 0 0 1-.074-.151 5.503 5.503 0 0 0-.366-.062c-.04.009-.08.02-.12.032l-.035.011c-.15.046-.303.094-.466.125m-9.88.532c-.02.049-.273.667-.344.902l-.102.345a3.305 3.305 0 0 0-.04.14 1.995 1.995 0 0 1-.088.285 1.13 1.13 0 0 0-.07.225 1.697 1.697 0 0 1-.157.464.606.606 0 0 0-.052.19.644.644 0 0 1-.032.143 1.423 1.423 0 0 1-.037.274 7.353 7.353 0 0 1-.04.157 4.925 4.925 0 0 0-.048.2 4.45 4.45 0 0 1-.16.535l-.034.101.024-.026.078-.088c.053-.06.106-.12.163-.175.05-.05.109-.107.159-.168.097-.119.665-.92.691-.958l.095-.153c.072-.114.143-.228.221-.337a1.42 1.42 0 0 0 .045-.067c.043-.064.091-.138.16-.204.045-.044.122-.13.156-.178-.004-.045-.003-.086-.003-.125.001-.024.002-.048 0-.073-.007-.124.038-.454.097-.872.017-.123.032-.228.038-.285a.205.205 0 0 0-.002-.051l-.009-.008c-.043-.036-.085-.071-.13-.103l-.142-.105c-.056-.04-.095-.068-.126-.07-.078-.004-.157-.015-.236-.025-.009 0-.017-.002-.025-.003zm5.147 1.718c-.214 0-.453.405-.453.946 0 .542.24.947.453.947.215 0 .454-.405.454-.947 0-.54-.24-.946-.454-.946m-2.187.886a1.572 1.572 0 0 0 .262.05l.144.16-.12-.165c.02-.014.024-.02.025-.021a.779.779 0 0 1 .017-.16l.014-.088c.016-.102.034-.219.091-.334.01-.018.02-.037.032-.055l.012-.02a.51.51 0 0 1 .274-.304l.136-.062c.06-.028.12-.055.171-.087l-.005-.218a43.402 43.402 0 0 0-.1-2.163l-.03-.387a.517.517 0 0 1-.02-.137 1.783 1.783 0 0 1 .075-.524.706.706 0 0 1-.1.147c-.009.011-.016.022-.023.033l-.149.235a2.223 2.223 0 0 1-.047.07c-.023.033-.046.065-.064.1-.04.079-.073.16-.107.24l-.025.06a.82.82 0 0 1-.078.148 1.484 1.484 0 0 0-.171.377c-.03.094-.05.175-.06.246-.003.03-.008.057-.013.086-.004.023-.009.045-.011.069a.373.373 0 0 0 .037.248.295.295 0 0 1 .04.1c.006.039.016.076.025.113.023.091.05.195.046.311a.3.3 0 0 1 .02.098c.01.087.02.158.03.228.015.087.03.174.048.26.017.085.027.172.036.26l.016.143a.655.655 0 0 1-.04.34 1.492 1.492 0 0 1-.227.375l-.059.07a.677.677 0 0 0-.078.1.232.232 0 0 0-.024.058m-1.06-1.59c.008.06.01.116.012.168l.001.023c.003.093.008.186.02.278.003.028.008.055.014.082.007.036.015.072.02.109.018.012.062.04.088.04.005 0 .011-.001.023-.007l.04-.016a.834.834 0 0 0 .144-.07.247.247 0 0 0-.004-.04c-.033-.104-.052-.206-.07-.305a3.142 3.142 0 0 0-.026-.14l-.012-.047a.884.884 0 0 1-.027-.144 1.185 1.185 0 0 0-.013-.093 1.024 1.024 0 0 1-.164.094.513.513 0 0 1-.045.068M8.6 7.47c.021.106.025.217.01.34.033-.039.066-.074.098-.107l.019-.02a1.43 1.43 0 0 1 0-.216l.005-.032.003-.028c-.021-.117-.004-.23.011-.33.005-.038.012-.077.014-.115a.304.304 0 0 1 .028-.103c.045-.109.068-.229.092-.356l.008-.04a.7.7 0 0 1 .14-.32c.04-.049.078-.108.123-.196.02-.037.042-.073.065-.108.124-.186.199-.352.235-.52-.008-.026-.022-.047-.035-.069-.045-.074-.079-.143-.112-.21-.03-.062-.06-.124-.097-.181-.017-.027-.04-.063-.054-.11a.94.94 0 0 1-.164-.288.985.985 0 0 1-.022-.087c-.006-.022-.013-.055-.018-.063a.39.39 0 0 1-.046-.087 1.427 1.427 0 0 1-.034-.072c-.005-.011-.009-.023-.015-.033a.212.212 0 0 0-.123-.06l-.038-.001a.743.743 0 0 0-.181.03 7.034 7.034 0 0 1-.307.07.577.577 0 0 1-.283-.017.912.912 0 0 1-.225-.106A1.082 1.082 0 0 0 7.3 3.87c-.06-.01-.13-.012-.202-.012H7.05a5.206 5.206 0 0 1-.473-.037l-.14-.016a5.337 5.337 0 0 0-.556-.038.501.501 0 0 0-.081.061.048.048 0 0 0-.016.021l-.022.061c.007.026.01.047.012.064.038.107.345.504.458.546a.409.409 0 0 0 .121.001.312.312 0 0 1 .064-.008c.042 0 .081.009.116.029l.03.015c.063.032.143.072.208.148a.257.257 0 0 0 .049.035l.052.033c.025.016.05.032.072.05.114.091.212.194.307.292l.079.082c.04.002.09.006.145.023a.449.449 0 0 0 .137.018h.183a.492.492 0 0 1 .313.027c.018.007.035.015.051.023a.196.196 0 0 0 .045.019.27.27 0 0 1 .187.188l.006.02c.01.03.019.06.025.092.006.03.015.057.028.08.063.111.08.224.048.337.003.003.003.016.002.028-.003.036.002.078.007.128.005.04.01.08.011.12.003.072.01.144.016.216.005.041.008.083.01.125.004.054.009.109.016.164.008.057.014.114.02.172.007.07.014.141.027.212.01.06.022.152 0 .253zm5.885-1.292a.757.757 0 0 1-.196.095c-.059.018-.115.042-.172.065l-.053.023c-.12.048-.235.109-.356.174l-.079.04a.415.415 0 0 1-.088.112.067.067 0 0 0-.016.02c-.036.061-.076.13-.099.195l-.01.026c-.022.06-.047.13-.042.165l.002.012v.091c.004.076.02.155.037.237.012.059.023.117.032.175l.044-.042a.292.292 0 0 0 .047-.06.685.685 0 0 1 .177-.202.524.524 0 0 1 .118-.124l.018-.015c.09-.079.193-.153.321-.236l.289-.182.031-.02v-.018c0-.057 0-.114-.004-.17a2.552 2.552 0 0 1 0-.362M11.9 4.033c-.06.006-.124.024-.19.042l-.058.015c-.116.03-.18.102-.197.225a.895.895 0 0 0 .018.27.477.477 0 0 0 .105.212c.138.178-.018 1.152-.02 1.16-.017.05-.037.098-.06.144a.327.327 0 0 0-.015.038c.12-.091.251-.136.365-.17a.532.532 0 0 0 .077-.03c.025-.012.054-.037.088-.063.02-.018.042-.035.064-.05a.837.837 0 0 1 .015-.054l.012-.045a.468.468 0 0 1 .014-.057c.001-.018 0-.202-.004-.437-.004-.421-.01-1.005-.01-1.156l-.198-.044Z" style="fill:#000;fill-opacity:1;fill-rule:nonzero;stroke:none;stroke-width:.537257"/><path d="M21.008.413a.26.26 0 0 1 .102.02c.012.005.023.008.034.014.032.02.036.036.016.07a.135.135 0 0 1-.078.063 3.547 3.547 0 0 0-.411.181c-.042.025-.094.023-.141.034-.078.02-.556.32-.696.376-.069.027-.138.05-.2.096-.045.034-.11.04-.166.058a.668.668 0 0 1-.206.032 1.555 1.555 0 0 1-.608-.161.069.069 0 0 0-.03-.006c-.123 0-.526.124-.6.152-.09.035-.168.09-.248.141a3.466 3.466 0 0 1-.393.219l-.016.006a1.112 1.112 0 0 0-.415.267c-.081.076-.167.148-.242.23-.01.011-.026.02-.028.037-.012.085-.056.157-.09.232-.066.147-.297.84-.304.93a.714.714 0 0 1-.023.138c-.013.041-.026.083-.047.122.016.013.03.015.047.015h.008c.165 0 .329.005.493.005.081 0 .162-.001.243-.005.079-.003.157-.011.233-.032.092-.025.184-.047.277-.068.056-.012.11-.03.162-.051.107-.043.22-.069.329-.108.042-.016.08-.04.117-.062.119-.068.249-.113.364-.184.14-.088.294-.142.45-.19.094-.028.185-.062.277-.093.173-.06.35-.105.532-.119.104-.008.206-.021.31-.028.078-.006.157-.006.236-.01.089-.004.178-.012.266-.026.106-.016.37-.018.393-.023.034-.008.157-.011.29-.011.146 0 .304.003.377.006.11.005.221.028.326.068.023.01.264.16.362.223.055.035.07.115.029.166-.01.012-.024.013-.038.015-.13.012-.26.027-.39.027-.05 0-.1-.002-.15-.008h-.016c-.107 0-.504.06-.592.06-.008 0-.013 0-.015-.002a.064.064 0 0 0-.03-.006H21.089l-.246-.002a20.5 20.5 0 0 0-.35.003c-.244.006-.48.049-.71.126-.065.022-.403.222-.43.231-.097.034-.196.056-.287.112-.09.054-.186.099-.286.134-.188.065-.363.162-.545.24-.254.11-.513.203-.771.3a1.463 1.463 0 0 0-.139.061c-.231.12-.47.223-.72.292-.12.032-.242.055-.365.07-.047.006-.07.03-.092.066a1.487 1.487 0 0 0-.17.467c-.023.109-.058.215-.081.323a.198.198 0 0 1-.032.066.58.58 0 0 0-.07.155.14.14 0 0 0 .06.164.28.28 0 0 0 .115.053l.028.002a.17.17 0 0 0 .061-.011c.114-.037.213-.1.311-.166.052-.034.1-.078.156-.104.1-.048.202-.094.314-.111.107-.016.502-.064.578-.07.148-.01.296-.019.443-.036a6.331 6.331 0 0 0 .274-.034.16.16 0 0 1 .072.018.328.328 0 0 0 .147.035c.057.001.11.02.16.05a.662.662 0 0 0 .166.074c.089.027.18.05.266.085a.47.47 0 0 0 .182.034c.051 0 .102-.006.153-.013a.605.605 0 0 1 .116-.007c.095.006.162.058.211.135.032.05.067.096.12.125.035.02.051.057.08.083a.832.832 0 0 0 .226.14c.11.05.182.13.2.253.007.042.016.083.021.125a.473.473 0 0 1 0 .126c-.01.066.005.133.014.2.005.038.014.075.02.113.006.035-.008.054-.041.06a.094.094 0 0 1-.017.003.121.121 0 0 1-.105-.073c-.035-.077-.036-.161-.047-.243-.005-.038-.004-.082-.033-.108-.03-.028-.046-.061-.067-.093-.03-.045-.064-.088-.096-.133-.051-.071-.127-.088-.208-.094H19.62l-.017-.001a.15.15 0 0 1-.12-.06c-.024-.03-.05-.058-.069-.093-.025-.048-.07-.057-.117-.065h-.003c-.027 0-.166.018-.252.018a.34.34 0 0 1-.05-.003l-.013-.002a.02.02 0 0 0-.016.008.22.22 0 0 0 .061.062c.032.023.055.053.08.083.07.084.126.177.189.267.1.145.189.297.232.471.012.05.006.102.037.146a.014.014 0 0 1 0 .006c-.022.091.014.182 0 .272-.008.069-.002.138-.013.206-.006.033-.104 1.024-.079 1.17.012.065.044.123.068.183.026.065.057.13.083.196.009.021.024.045.011.069-.02.04-.035.083-.078.106a.045.045 0 0 1-.025.006.076.076 0 0 1-.048-.022.135.135 0 0 1-.043-.058c-.022-.068-.07-.123-.097-.188-.037-.083-.08-.164-.088-.257-.001-.01-.002-.02-.005-.03a.634.634 0 0 1-.025-.307c.02-.15.037-.302.068-.45.024-.115.04-.23.051-.348.01-.105.005-.21.016-.315.007-.07 0-.139-.007-.207a.139.139 0 0 0-.012-.041c-.017-.04-.459-.517-.469-.525-.03-.024-.624-.178-.73-.178h-.012a.148.148 0 0 0-.118.144.234.234 0 0 0 .031.134c.1.16.127.34.163.52.015.073.03.147.04.22.01.07.035.134.052.2.022.082.055.162.08.243.033.112.049.226.045.342 0 .012-.053.16-.062.227-.008.06-.02.12-.034.18-.027.108.012.192.101.258.044.033.082.07.1.127.034.102.08.199.154.28.02.024.033.05.041.08.03.112.061.224.093.335.012.043.02.087.023.131.006.061.009.122.03.18.009.026.01.052.01.078a.434.434 0 0 0 .042.195.63.63 0 0 1 .054.192c.014.112.04.223.076.331.03.088.055.178.074.27.017.088.053.17.092.249.049.097.09.2.128.3.036.092.084.175.14.254.056.081.1.17.154.252.019.03.022.065.019.1-.009.095.004.19.008.284.002.075 0 .15.045.215.037.167.113.32.177.478.06.148.104.301.145.456.01.039.023.077.04.114.015.031.025.064.037.096.024.065.061.123.13.152.104.042.197.105.298.15.062.027.123.053.185.078.014.006.79.306 1.057.433.064.03.13.074.147.157.01.048.003.071-.04.095a.214.214 0 0 1-.105.025.318.318 0 0 1-.044-.003c-.072-.01-.146-.012-.218-.018a1.09 1.09 0 0 1-.225-.046 12.977 12.977 0 0 0-.655-.167 2.547 2.547 0 0 0-.587-.064h-.058l-.365.005a.277.277 0 0 0-.106.023c-.068.028-.135.056-.204.079-.068.023-.917.434-.981.434h-.002c-.127-.016-.482-.035-.53-.054-.064-.025-.128-.053-.194-.07a.065.065 0 0 1-.028-.013c-.06-.049-.849-.085-.977-.085h-.008c-.107.002-.214.017-.322.017h-.006c-.053 0-.245.033-.293.044-.084.02-.169.031-.253.031a.827.827 0 0 1-.18-.02c-.075-.015-.15-.03-.225-.05a1.287 1.287 0 0 0-.403-.038.295.295 0 0 0-.107.024c-.082.037-.438.243-.527.286a.198.198 0 0 1-.058.015 3.379 3.379 0 0 1-.373.015h-.269c-.058 0-.116 0-.174-.002a.456.456 0 0 1-.2-.046c-.041-.022-.043-.027-.032-.072a.147.147 0 0 1 .06-.092c.08-.057.162-.111.223-.189.067-.086.155-.154.221-.24a.175.175 0 0 1 .064-.056c.073-.033.132-.087.201-.125.032-.017.187-.194.21-.231.024-.041.054-.081.064-.13a.067.067 0 0 1 .013-.027c.094-.12.146-.266.236-.39.042-.059.04-.13.054-.196.022-.105.015-.214.035-.32.024-.134.036-.269.037-.404 0-.054.021-.1.048-.142.023-.037.049-.229.05-.274.003-.097.036-.186.06-.278.005-.016.011-.028.017-.042a67.38 67.38 0 0 1-.007-.586c0-.088-.003-.887-.012-.98-.007-.076.039-.463.03-.583a7.068 7.068 0 0 1-.028-.631c.001-.093-.007-.186-.006-.279.002-.114-.008-.227 0-.34.004-.075.02-.15.007-.225-.006-.042-.015-.084-.017-.126-.006-.108-.008-.215-.01-.322a.373.373 0 0 0-.014-.107c-.035.055-.184.298-.23.36-.462.623-.494 2.81-.935 3.126a5.55 5.55 0 0 0-.913.797c.043 1.444.09 1.95.121 2.11l.087.435-.44.051a8.242 8.242 0 0 1-.714.042l-.24.003c-.087 0-.155-.002-.209-.006l-.46-.032.088-.453c.02-.106.044-.435.045-1.38-.713-.317-1.415-.673-1.438-.695a.597.597 0 0 1-.19-.364c0-.01-.001-.02-.006-.03a.925.925 0 0 0-.135-.186c-.048-.048-.104-.088-.157-.133a3.579 3.579 0 0 0-.48-.09c-.036.031-.075.057-.078.116a4.263 4.263 0 0 1-.012.218c-.011.13-.01.26-.003.389.007.116-.01.23-.012.345-.002.103-.01.205-.013.309-.002.082.001.165-.013.247-.01.064-.022.128-.019.194.002.02-.005.265.014.377v.079c0 .033.004.065.003.098 0 .029.031.203.033.223.01.135.039.263.118.376.035.05.023.087-.038.09a.327.327 0 0 0-.209.074c-.05.042-.12.045-.185.05l-.03.001h-.005c-.012 0-.025 0-.037.002a.187.187 0 0 1-.017.001c-.032 0-.045-.017-.055-.056a.17.17 0 0 1 .033-.15c.033-.042.065-.75.07-.8.002-.044 0-.05-.044-.053-.092-.006-.185-.009-.278-.018a4.97 4.97 0 0 1-.342-.042c-.094-.016-.188-.026-.282-.041-.176-.03-.35-.059-.525-.092a1.26 1.26 0 0 0-.315-.017h-.011a.241.241 0 0 1-.122-.032c-.082-.048-.17-.086-.255-.128a.123.123 0 0 0-.056-.013l-.027.002c-.068.011-.136.02-.204.028l-.023.002c-.024 0-.026-.01-.024-.045a.261.261 0 0 1 .054-.159c.022-.025.174-.674.188-.773l-.003-.018c-.003-.002-.005-.002-.008-.002-.01 0-.016.009-.023.015-.197.166-.383.344-.571.52a2.447 2.447 0 0 0-.158.16.47.47 0 0 1-.155.113.082.082 0 0 0-.048.057 2.3 2.3 0 0 1-.06.178c-.016.042-.269 1.1-.297 1.218-.006.025-.001.035.015.058.038.05.087.057.139.06.047.006.09.02.135.031.135.03.27.06.404.088.127.026-.137.1-.335.114-.088.006-.177 0-.276.012.044.019-1.005.034-1.142.088a.129.129 0 0 1-.046.009c-.106 0-.2-.126-.149-.193.08-.036.355-.313.4-.41.052-.117.11-.23.168-.344.088-.174.179-.349.267-.524.058-.115.11-.234.174-.346.04-.068.066-.142.111-.208a.38.38 0 0 0 .05-.128c.035-.144.065-.288.097-.433.01-.045.181-.826.234-.93.042-.083.082-.167.127-.25.06-.109.11-.224.164-.336.027-.054.226-.451.246-.555.003-.015.042-.202.06-.26.057-.179.118-.356.177-.534l.002-.006c.008-.082.21-.551.232-.64.03-.117.064-.235.078-.355.008-.071.149-.481.163-.535.032-.122.077-.239.118-.357.008-.023.02-.046.013-.072-.019 0-.258-.053-.358-.053a.118.118 0 0 0-.03.003c-.1.024-.205.018-.304.051a.165.165 0 0 1-.063.01.16.16 0 0 1-.052-.007c-.018-.005-.385-.198-.405-.23-.074-.128-.547-.579-.622-.675-.066-.084-.207-.417-.251-.475a.516.516 0 0 1-.09-.236c-.013-.077.003-.148.006-.222.005-.103.043-.198.067-.296.006-.026.019-.038.037-.038a.11.11 0 0 1 .037.01.17.17 0 0 1 .098.13c.008.043.02.086.024.131a.708.708 0 0 0 .017.127c.009.036.196.58.217.603.052.063.29.282.326.302.067.036.132.073.197.11a.076.076 0 0 0 .032.006c.156 0 .717-.216.736-.22.053-.008.088-.046.128-.077.097-.077.095-.077.066-.197-.02-.08-.131-1.225-.088-1.248-.046-.057-.104-.095-.153-.141-.039-.037-.612-.63-.65-.721a.595.595 0 0 1-.04-.214c-.003-.054-.005-.109.002-.164.003-.022 0-.029-.013-.029a.098.098 0 0 0-.02.003c-.113.02-.216.068-.323.105-.1.035-.82.122-1.11.122a.517.517 0 0 1-.09-.006c-.164-.028-.811-.162-.943-.172a3.953 3.953 0 0 1-.248-.028.38.38 0 0 0-.204.02c-.07.03-.707.15-.773.185a1.644 1.644 0 0 0-.442.33c-.055.06-.124.105-.168.175-.01.016-.028.016-.043.017H.589a.165.165 0 0 1-.031-.003c-.096-.026-.104-.033-.13-.128a.383.383 0 0 1-.015-.077 1.98 1.98 0 0 1 .004-.28.481.481 0 0 1 .17-.175c.104-.063.212-.116.325-.16.036-.014.615-.173.69-.198a.442.442 0 0 1 .03-.009c-.017-.033-.25-.383-.286-.453-.053-.104-.073-.224-.147-.318a.111.111 0 0 0-.056-.043 1.194 1.194 0 0 0-.231-.05C.899 2.77.738 2.674.809 2.615c.114.01.357.035.424.075.532.32.691.67.788.78.015.016.031.021.053.024.078.013.156.016.235.029a.195.195 0 0 0 .034.003c.05 0 .102-.014.152-.017.025-.002.05-.002.074-.002.116 0 .23.019.337.061.05.02.686.056.925.056h.052c.163-.007.322-.034.48-.065.118-.022.232-.055.347-.088.035-.01.036-.012.019-.046l-.142-.281c-.031-.058-.318-.212-.386-.238A.625.625 0 0 0 4 2.873a.481.481 0 0 1-.186-.048c-.102-.047-.207-.09-.305-.147a.49.49 0 0 1-.06-.041c-.07-.055-.347-.335-.383-.413a.123.123 0 0 0-.078-.063c-.097-.03-.193-.062-.29-.093l-.33-.1c-.05-.015-.056-.025-.054-.073a.047.047 0 0 1 .023-.04.68.68 0 0 0 .1-.08.038.038 0 0 1 .028-.012c.007 0 .014.002.022.006.084.037.173.052.263.07.05.009.099.02.148.033.065.018.12.056.177.093.058.038.107.086.16.131.11.098.22.199.34.285.053.038.098.086.148.127a.321.321 0 0 0 .21.082A.267.267 0 0 0 4 2.582a.225.225 0 0 0 .112-.058c.06-.057.065-.093.027-.166a1.32 1.32 0 0 1-.076-.166c-.004-.01-.144-.193-.245-.237a.609.609 0 0 1-.224-.2 1.15 1.15 0 0 1-.13-.19c-.03-.06-.016-.089.049-.092a.214.214 0 0 0 .078-.013c.069-.03.524-.162.626-.162H4.235c.024 0 .045-.008.067-.016a.058.058 0 0 1 .021-.005c.024 0 .038.019.036.049-.002.024-.01.047-.012.072-.003.023-.023.028-.04.032-.147.04-.25.154-.387.221.028.028.059.03.086.04.066.02.132.04.198.058a.091.091 0 0 1 .054.037c.03.043.06.085.083.134.137.299.27.6.45.876.026.04.196.436.254.573.066-.024.132-.047.198-.067.055-.016.847-.14.897-.14h.001c.073 0 .143-.026.214-.041.017-.003.033-.006.049-.006.033 0 .064.009.098.03a1.392 1.392 0 0 0 .653.211.555.555 0 0 0 .247-.057c.097-.048.132-.126.107-.231-.003-.01-.008-.02-.006-.03.01-.062-.013-.113-.046-.165-.043-.068-.057-.152-.102-.218-.056-.085-.094-.179-.148-.263a5.381 5.381 0 0 1-.15-.258l-.089-.16a.228.228 0 0 0-.087-.09c-.056-.032-.062-.068-.026-.12a.303.303 0 0 1 .04-.047.914.914 0 0 1 .403-.216.348.348 0 0 1 .14-.003.605.605 0 0 0 .094.006.822.822 0 0 0 .412-.122 1.698 1.698 0 0 1 .408-.292l.027-.013a.04.04 0 0 1 .014-.003c.013 0 .017.01.015.026a.214.214 0 0 1-.056.112 1.519 1.519 0 0 1-.3.275 1.28 1.28 0 0 0-.106.082c-.068.058-.147.1-.224.145-.11.063-.23.073-.35.09a.22.22 0 0 0-.07.018c-.023.012-.028.026-.015.049.033.056.068.11.098.168.075.142.157.279.25.41.01.016.015.037.023.056.05.123.11.241.163.363.074.172.187.322.273.486.016.03.039.045.074.053.123.028.72.125.777.135a.276.276 0 0 0 .05.005c.045 0 .09-.012.13-.04a.108.108 0 0 1 .065-.016h.028c.094 0 .187.016.28.029.05.008.093.034.131.071.06.06.103.129.127.21.02.07.048.138.07.208.025.081.102.256.108.263.118.15.281.68.314.711.006.006.013.011.02.011.006 0 .012-.005.017-.018.043-.14.122-.269.146-.417.01-.066.043-.127.056-.193.018-.099.034-.199.061-.297.007-.022.014-.041.033-.055l.163-.118a.144.144 0 0 1 .068-.025c.1-.016.466-.156.529-.166.062-.009.123-.024.185-.037.045-.009.452-.123.506-.168.021-.017.047-.023.072-.031a.163.163 0 0 0 .115-.108c.037-.116.104-.216.167-.317a2.85 2.85 0 0 0 .168-.327c.05-.11.097-.222.148-.33.028-.062.07-.118.11-.175a1.4 1.4 0 0 0 .091-.151c.044-.083.091-.163.138-.244.028-.05.022-.066-.034-.08a.554.554 0 0 0-.115-.017.681.681 0 0 1-.376-.138c-.175-.122-.35-.243-.494-.402a.42.42 0 0 1-.083-.12c-.005-.014-.012-.026-.01-.04.002-.011.008-.02.018-.02a.02.02 0 0 1 .008.003l.033.015c.102.054.197.121.293.186a.156.156 0 0 1 .022.02.67.67 0 0 0 .503.206l.073-.003a.73.73 0 0 1 .066-.003c.069 0 .136.009.202.035.104.042.2.1.285.173.024.02.043.043.059.07.026.044.021.08-.023.103-.054.028-.273.424-.37.565a.093.093 0 0 0-.014.033.265.265 0 0 1-.064.116c-.032.035-.05.08-.066.122-.027.072-.06.142-.1.207-.004.008-.01.014-.011.022-.008.067-.022.136-.02.204.002.07.047.12.11.15a.565.565 0 0 0 .306.057c.226-.022.429-.105.62-.222a.125.125 0 0 1 .096-.018c.065.016.57.228.685.239.042.003.06.024.074.059.017.045.028.089.001.134-.006.012-.018.015-.03.018-.02.006-.04.011-.058.02-.032.013-.71.015-.77.02-.189.02-.378.046-.57.05-.1.001-.202 0-.303.018a1.411 1.411 0 0 0-.32.114c-.02.01-.034.022-.028.046.014.067.003.133 0 .2-.012.165 0 .33.038.49.023.101.084.784.106.903.004.02.004.04.007.06a.15.15 0 0 0 .079.116.132.132 0 0 0 .067.021.123.123 0 0 0 .064-.019c.01-.006.023-.01.03-.018.083-.11.736-.466.85-.53.037-.022.075-.042.113-.06.116-.055.207-.142.31-.214a.264.264 0 0 0 .117-.164.255.255 0 0 1 .092-.144c.041-.035.077-.076.124-.106a.26.26 0 0 1 .076-.036.136.136 0 0 0 .04-.016c.11-.075.24-.094.368-.115a.554.554 0 0 0 .198-.074c.007-.003.013-.01.02-.012.074-.017.109-.074.146-.13.078-.114.155-.229.217-.353.016-.032.035-.064.054-.096.098-.167.189-.34.286-.508.087-.15.137-.312.183-.475.035-.121.09-.23.164-.33.08-.108.181-.197.281-.287.134-.118.58-.4.627-.446.056-.055 1.092-.421 1.334-.421a.78.78 0 0 1 .244.062c.042.019.089.015.132.02.056.006.112.014.169.017.028.002.056.002.084.002.093 0 .187-.008.28-.016a.161.161 0 0 0 .095-.034c.083-.073.179-.123.28-.169.14-.064.279-.137.413-.217.082-.048.166-.093.253-.134a.599.599 0 0 1 .197-.056c.046-.005.09-.023.134-.039a.288.288 0 0 1 .1-.018M6.298 4.73a.621.621 0 0 0 .086-.006c.01-.002.022-.005.033-.005.007 0 .014 0 .02.005.064.033.132.06.178.115.036.042.082.065.125.093.025.017.051.033.075.051.133.107.247.234.365.355.006.006.008.014.012.021.01.026.03.034.056.038.054.008.11.001.163.018a.649.649 0 0 0 .2.028H7.799a.196.196 0 0 0 .054-.007.216.216 0 0 1 .061-.009c.04 0 .079.01.116.027.039.016.076.038.117.05a.067.067 0 0 1 .049.049c.009.031.02.062.025.094.01.05.027.098.052.142a.224.224 0 0 1 .028.18c-.005.022-.003.045-.004.068-.008.09.014.18.017.272.003.076.01.153.017.23.01.098.013.196.027.295.018.13.025.262.048.391.01.059.014.117.002.176-.007.029-.02.06-.012.09a.86.86 0 0 1 .012.307c-.01.077-.023.152-.048.225a.595.595 0 0 0-.03.18c-.001.073.022.142.024.214h.003c.012 0 .018-.006.025-.012.052-.051.091-.112.139-.167.025-.03.048-.06.084-.078a.134.134 0 0 0 .062-.065c.05-.106.131-.19.21-.273a.208.208 0 0 0 .06-.192.487.487 0 0 1-.006-.14c.004-.036.013-.074.006-.109-.023-.137.018-.269.028-.404.001-.013.007-.026.012-.04.059-.14.084-.287.112-.435a.49.49 0 0 1 .096-.227c.06-.072.106-.151.149-.234a.92.92 0 0 1 .053-.088c.121-.183.218-.375.264-.59.014-.065.01-.124-.033-.178-.012-.015-.022-.033-.032-.05-.076-.125-.127-.263-.205-.386-.014-.02-.03-.04-.033-.064-.004-.027-.02-.043-.035-.062a.72.72 0 0 1-.129-.226c-.023-.068-.025-.143-.07-.205-.015-.022-.022-.05-.036-.075-.025-.047-.038-.102-.077-.138a.436.436 0 0 0-.307-.125.918.918 0 0 0-.234.037c-.098.026-.197.047-.296.068a.317.317 0 0 1-.18-.01.688.688 0 0 1-.176-.083 1.31 1.31 0 0 0-.47-.194c-.093-.018-.19-.015-.285-.016-.191-.003-.38-.029-.57-.048-.044-.005-.375-.044-.56-.044a.294.294 0 0 0-.119.014.722.722 0 0 0-.147.106.262.262 0 0 0-.063.094l-.043.12c-.006.015-.007.029.002.04.016.024.017.05.02.076.017.112.411.665.611.707a.547.547 0 0 0 .114.012m4.994 1.745a.148.148 0 0 0 .042-.006l.016-.008a.99.99 0 0 0 .248-.15.894.894 0 0 1 .311-.146.647.647 0 0 0 .107-.042c.085-.041.147-.114.227-.162a.06.06 0 0 0 .026-.046c.006-.053.029-.101.038-.154.004-.027.017-.053.018-.082 0-.067-.017-1.386-.015-1.605v-.152c.001-.021-.004-.032-.023-.032h-.007a.315.315 0 0 1-.114-.008l-.214-.048a.225.225 0 0 0-.072-.003c-.095.01-.186.04-.278.063a.446.446 0 0 0-.347.394c-.016.112 0 .22.018.332.02.116.077.214.146.304.051.066-.041.933-.054.971a.924.924 0 0 1-.048.118.546.546 0 0 0-.056.24.474.474 0 0 1-.016.137c-.007.023-.022.055-.004.07.014.01.032.015.051.015m-1.433 4.243c.05 0 .097-.015.138-.044.057-.041.102-.09.105-.168.002-.058.015-.116.024-.174.02-.114.03-.23.081-.335.018-.035.043-.064.055-.102a.31.31 0 0 1 .173-.186c.01-.006.022-.009.033-.015.134-.065.276-.115.389-.216l-.008-.324a42.66 42.66 0 0 0-.102-2.174l-.03-.388.006-.001a.312.312 0 0 1-.024-.119c0-.118.013-.236.038-.35.054-.241.137-.474.235-.701.04-.094.076-.188.095-.288a.222.222 0 0 0-.007-.12c-.019-.053-.074-.095-.125-.095a.07.07 0 0 0-.011 0c-.068.009-.136.016-.197.056-.028.018-.045.034-.044.069a.503.503 0 0 1-.023.172c-.054.163-.097.33-.19.478-.024.038-.052.076-.066.121a.436.436 0 0 1-.09.15c-.015.016-.027.035-.04.054l-.148.235c-.04.063-.088.122-.121.188-.051.101-.094.207-.138.31a.634.634 0 0 1-.058.114c-.09.132-.15.28-.198.43-.029.09-.054.186-.067.283-.007.052-.019.103-.025.155a.58.58 0 0 0 .064.378c.006.01.012.021.014.033.023.127.072.249.069.38 0 .02.005.041.011.06.008.028.01.056.012.084a6.498 6.498 0 0 0 .078.49c.027.129.032.26.05.39a.457.457 0 0 1-.026.235c-.049.119-.12.225-.198.326-.052.065-.113.123-.155.195-.08.143-.089.31.128.364a1.636 1.636 0 0 0 .293.049m3.505-2.781c.01 0 .022-.003.035-.01a.411.411 0 0 0 .113-.092c.036-.041.073-.08.114-.118a.504.504 0 0 0 .084-.103.467.467 0 0 1 .136-.153c.01-.008.024-.017.03-.03.024-.049.067-.078.107-.112.094-.081.194-.152.298-.218.128-.082.257-.162.385-.243.015-.009.031-.017.03-.04-.002-.098 0-.195-.006-.292-.007-.12-.01-.24.002-.358.004-.043.012-.086.001-.127-.008-.034.017-.085-.043-.098-.005-.001-.004-.03-.005-.046-.001-.012-.006-.022-.016-.022a.033.033 0 0 0-.012.003c-.057.029-.122.039-.175.08a.674.674 0 0 1-.212.119c-.083.025-.162.06-.243.094-.156.064-.302.144-.452.222a.204.204 0 0 0-.104.106c-.006.018-.02.03-.033.042a.27.27 0 0 0-.049.063 1.365 1.365 0 0 0-.114.227c-.035.096-.075.193-.063.286 0 .04-.002.066 0 .093.012.161.06.317.078.478.002.012.007.023.011.035.02.057.048.11.059.171.005.028.022.042.044.042m5.746 4.729c.01-.008.009-.017.007-.024-.015-.073-.095-.71-.123-.87-.035-.21-.094-.414-.139-.622l-.092-.415c-.038-.171-.072-.344-.108-.516a1.73 1.73 0 0 1-.036-.289.678.678 0 0 0-.093-.297c-.033-.06-.085-.107-.13-.159a.619.619 0 0 0-.134-.123c-.02-.012-.175-.165-.212-.197-.064-.055-.132-.286-.11-.368.014-.046.031-.09.04-.138.014-.07.087-.253.102-.277a.466.466 0 0 0 .055-.185.27.27 0 0 0-.042-.191 1.272 1.272 0 0 0-.188-.214.284.284 0 0 1-.082-.132c-.026-.082-.032-.167-.044-.25-.006-.038-.005-.08-.023-.112a1.973 1.973 0 0 1-.083-.17.138.138 0 0 0-.087-.083 4.269 4.269 0 0 0-.466-.079l-.01.001c-.054.01-.107.026-.159.042-.174.054-.348.109-.528.14-.048.007-.094.023-.142.034-.02.006-.026.015-.02.035.009.03.013.06.024.088.053.153.094.309.127.467.003.014.008.028.01.042.019.134.075.256.126.38.044.104.088.209.12.318a.255.255 0 0 0 .025.062.955.955 0 0 1 .076.165c.169.456.343.91.56 1.346l.192.394c.01.022.023.043.039.061.146.178.278.366.415.55.018.024.034.05.046.078.03.071.07.137.115.2.029.039.06.078.08.122.041.098.1.185.162.27.053.071.097.15.155.218.179.208.35.422.518.638.017.022.034.045.057.06m-.326 1.57h.075c.227 0 .454.01.68.037l.052.006.024-.012c-.012-.063-.049-.114-.072-.17a6.032 6.032 0 0 1-.2-.558c-.027-.09-.048-.182-.073-.273a.303.303 0 0 0-.063-.128c-.089-.1-.17-.208-.275-.292a.213.213 0 0 1-.046-.056c-.048-.077-.108-.143-.16-.215-.01-.012-.023-.023-.036-.034-.048-.042-.107-.071-.14-.132-.006 0-.503-.45-.522-.517-.006-.025-.025-.042-.037-.063a9.135 9.135 0 0 1-.348-.67c-.007-.016-.111-.136-.136-.192-.031-.073-.364-.569-.464-.744-.23-.404-.392-.837-.542-1.275-.162-.476-.3-.96-.441-1.443a1.374 1.374 0 0 0-.035-.103.128.128 0 0 0-.168-.08c-.018.005-.027.017-.026.035l.003.073c.005.142.043.635.051.724.018.181.003.365.035.546.005.032.094.42.114.486.016.048.033.095.046.144.032.128.17.713.207.775.018.029.034.06.046.092.023.06.433 1.769.438 1.79.015.078.34.94.427 1.112.041.081.085.16.13.24.06.102.14.19.217.276a.646.646 0 0 0 .257.169c.09.033.169.088.254.13.004.001.166.105.248.148.117.061.242.104.364.151a.305.305 0 0 0 .116.024M4.959 12.681c.108-.081.174-.194.255-.294.072-.09.147-.177.222-.264.054-.063.109-.125.165-.186.077-.085.15-.175.233-.256.061-.058.12-.119.174-.185.106-.129.694-.959.705-.975.025-.043.052-.085.079-.128.075-.12.149-.24.232-.356.058-.081.107-.171.18-.242.04-.038.233-.24.223-.303-.013-.077-.003-.154-.007-.23-.009-.162.11-.924.134-1.125.006-.056-.003-.108-.013-.162a.06.06 0 0 0-.021-.035c-.063-.051-.125-.104-.19-.152l-.142-.104c-.07-.052-.142-.103-.233-.109-.134-.008-.266-.033-.4-.045l-.11.25c-.018.04-.277.674-.353.926-.035.114-.067.23-.103.344-.041.134-.066.275-.12.407a1.35 1.35 0 0 0-.083.265 1.49 1.49 0 0 1-.137.407.779.779 0 0 0-.074.255c-.005.035-.008.07-.02.101a.233.233 0 0 0-.016.083.976.976 0 0 1-.03.216c-.027.12-.061.24-.087.36a4.297 4.297 0 0 1-.153.51l-.105.31c-.054.16-.098.322-.152.481a.887.887 0 0 0-.054.236M8.686 9.78a.252.252 0 0 0 .102-.022c.082-.034.165-.064.237-.118.05-.035.077-.08.073-.144-.002-.039-.003-.078-.014-.114-.046-.14-.06-.285-.092-.427-.012-.055-.03-.11-.036-.166a1.164 1.164 0 0 0-.051-.255.632.632 0 0 1-.025-.197c0-.017.004-.035-.006-.056-.02.01-.029.028-.042.043-.043.05-.07.113-.12.158a.889.889 0 0 1-.198.129.225.225 0 0 0-.104.081.615.615 0 0 1-.071.098c-.018.02-.022.041-.017.068.014.071.015.143.017.217.004.098.009.198.022.297.008.063.026.126.034.19a.186.186 0 0 0 .08.139.4.4 0 0 0 .21.078m3.093 1.899c.364 0 .658-.516.658-1.151s-.294-1.15-.658-1.15c-.363 0-.657.515-.657 1.15 0 .635.294 1.15.657 1.15m-5.484 1.558c.046 0 .091.008.137.008h.02a2.66 2.66 0 0 1 .176-.003c.105.005.21.025.312.045.143.027.286.05.429.08.083.016.445.068.521.086.02.005.04.006.06.006.028 0 .057-.003.086-.005.028-.002.039-.019.04-.044.002-.022-.003-.044 0-.066.01-.091.042-.457.047-.523.012-.171.028-.341.02-.514-.01-.181.002-.364.005-.546 0-.016-.008-.258-.011-.275-.026-.13-.026-.261-.055-.39a1.643 1.643 0 0 1-.045-.312c0-.025-.013-.044-.031-.063-.061-.063-.264-.454-.313-.578a.74.74 0 0 0-.133-.21c-.083.094-.145.196-.215.292-.118.162-.23.329-.348.49-.078.105-.158.21-.228.32-.032.052-.062.105-.098.153-.039.051-.058.205-.061.223-.024.142-.06.281-.1.42-.043.145-.16.463-.163.481-.018.09-.026.18-.038.27a4.29 4.29 0 0 0-.04.538c0 .031-.012.064 0 .095.003.014.005.023.026.023M21.007.008a.72.72 0 0 0-.237.043l-.023.008c-.009.003-.017.008-.026.009a1.023 1.023 0 0 0-.315.09 3.207 3.207 0 0 0-.29.154 3.978 3.978 0 0 1-.376.197c-.093.043-.2.096-.304.173a2.29 2.29 0 0 1-.244.006c-.045-.002-.09-.008-.134-.014a.804.804 0 0 0-.06-.006 1.27 1.27 0 0 0-.371-.08c-.28 0-1.444.368-1.619.537a.119.119 0 0 1 .02-.018 4.77 4.77 0 0 1-.176.121 5.15 5.15 0 0 0-.458.331c-.108.096-.23.205-.336.347-.104.139-.182.295-.23.462a1.722 1.722 0 0 1-.143.383c-.048.081-.093.164-.138.246l-.148.262c-.026.044-.047.08-.066.118-.052.102-.121.205-.188.304a.658.658 0 0 0-.048.028.174.174 0 0 1-.045.018l-.013.002h-.004a.543.543 0 0 0 .057-.538.482.482 0 0 0-.4-.314c-.072-.018-.304-.108-.404-.146a2.37 2.37 0 0 0-.236-.085.518.518 0 0 0-.407.066c-.12.074-.23.121-.339.146.01-.022.02-.045.029-.069l.006-.016a.677.677 0 0 0 .122-.214c.036-.056.08-.127.124-.201.044-.074.115-.19.153-.245a.464.464 0 0 0 .157-.235.488.488 0 0 0-.055-.383.693.693 0 0 0-.146-.173 1.444 1.444 0 0 0-.398-.241.939.939 0 0 0-.354-.065l-.097.003-.041.002a.267.267 0 0 1-.21-.082.54.54 0 0 0-.086-.073l-.029-.02c-.09-.06-.191-.13-.305-.19a.7.7 0 0 0-.083-.038l-.067-.024-.08-.002a.428.428 0 0 0-.418.351c-.025.134.018.236.032.27a.79.79 0 0 0 .16.24c.173.192.377.335.557.46.058.04.115.075.173.104a1.25 1.25 0 0 0-.119.196c-.03.064-.058.129-.086.193l-.062.141c-.04.09-.09.193-.144.281l-.021.033c-.045.073-.099.158-.143.258a.42.42 0 0 0-.06.034c-.08.033-.316.101-.377.116l-.054.01c-.035.009-.07.016-.104.022a1.79 1.79 0 0 0-.288.086c-.075.025-.213.072-.253.08a.557.557 0 0 0-.232.095 6.69 6.69 0 0 0-.107.078l-.058.042a.479.479 0 0 0-.141.16l-.024-.067-.03-.09a.896.896 0 0 0-.231-.384.63.63 0 0 0-.362-.185l-.047-.008c-.086-.013-.183-.027-.29-.027h-.042c-.036.003-.12.006-.213.049a3.236 3.236 0 0 0-.1-.017c-.114-.019-.337-.056-.482-.082a5.685 5.685 0 0 0-.051-.085 2.004 2.004 0 0 1-.133-.24 4.779 4.779 0 0 0-.076-.167c-.029-.062-.058-.124-.084-.187a.518.518 0 0 0-.068-.139 3.15 3.15 0 0 1-.083-.125c.013-.008.027-.013.04-.022l.03-.016a1.51 1.51 0 0 0 .258-.174.894.894 0 0 1 .074-.057c.15-.107.274-.22.38-.348a.612.612 0 0 0 .146-.326A.423.423 0 0 0 8.22.7a2.088 2.088 0 0 0-.511.344.382.382 0 0 1-.176.05c-.012 0-.025 0-.038-.003a.792.792 0 0 0-.286.01 1.308 1.308 0 0 0-.584.309.673.673 0 0 0-.104.119.482.482 0 0 0-.085.39.483.483 0 0 0 .196.288l.033.06.036.063c.054.1.105.188.162.28.02.029.035.06.05.091.029.054.06.116.103.18l.012.031.006.017a1.057 1.057 0 0 1-.318-.134.587.587 0 0 0-.447-.074l-.075.018a.575.575 0 0 1-.059.014c-.074 0-.589.08-.855.126a2.203 2.203 0 0 0-.145-.307c-.15-.23-.267-.485-.39-.754l-.032-.07a.936.936 0 0 0-.047-.089.446.446 0 0 0 .086-.21.754.754 0 0 0 .014-.09.445.445 0 0 0-.58-.47c-.186.013-.565.128-.705.176a.463.463 0 0 0-.378.222.443.443 0 0 0-.062.2c-.012-.006-.025-.009-.039-.013a3.187 3.187 0 0 0-.174-.04l-.033-.006a.722.722 0 0 1-.141-.035.448.448 0 0 0-.505.09.191.191 0 0 1-.04.03.456.456 0 0 0-.203.36.454.454 0 0 0 .34.483l.152.046a12.135 12.135 0 0 1 .34.105l.036.012c.14.184.387.41.423.438a.925.925 0 0 0 .104.07c.09.053.178.093.257.128l.081.037.042.019a12.26 12.26 0 0 1-.665-.04 1.322 1.322 0 0 0-.548-.072l-.1.012-.019.003a1.08 1.08 0 0 0-.087-.01 2.527 2.527 0 0 0-.818-.765c-.056-.034-.159-.095-.6-.132l-.166-.014-.128.105a.452.452 0 0 0-.147.48.616.616 0 0 0 .465.397c.013.002.026.003.038.006l.007.02c.018.047.04.105.07.165.004.008.008.017.014.026a2.756 2.756 0 0 0-.232.07 2.532 2.532 0 0 0-.387.19.883.883 0 0 0-.312.317c-.037.063-.08.135-.06.509a.75.75 0 0 0 .029.164c.064.235.182.351.418.414.044.012.09.018.137.018h.016a.444.444 0 0 0 .376-.208c.002 0 .02-.017.034-.03.03-.027.06-.055.089-.085.08-.087.182-.164.309-.234.067-.018.247-.057.358-.08.252-.055.334-.074.392-.096.089.013.182.025.278.032.073.006.43.076.62.113l.284.054c.044.008.095.01.16.01.243 0 .825-.058 1.112-.113l.014.037c.087.212.742.857.748.863l.014.014c.003.124.016.277.032.468.002.018.027.323.051.533-.24.087-.374.129-.449.148l-.066-.036a4.246 4.246 0 0 1-.2-.185 15.433 15.433 0 0 1-.169-.48c-.002-.01-.003-.034-.005-.051a1.114 1.114 0 0 0-.022-.143l-.006-.03a.58.58 0 0 0-.313-.42.481.481 0 0 0-.225-.058.444.444 0 0 0-.433.347 1.426 1.426 0 0 1-.019.07c-.024.082-.054.185-.059.307l-.004.045a.956.956 0 0 0 .16.663c.014.027.048.095.07.142.081.169.136.277.194.352.04.053.113.127.248.265.107.109.305.31.35.373.13.207.642.41.647.41a.607.607 0 0 0 .35-.01c.003-.002.01-.004.017-.004a1.64 1.64 0 0 0-.019.058c-.103.315-.128.404-.136.476-.008.073-.03.156-.053.244l-.015.058a8.273 8.273 0 0 1-.078.203 3.383 3.383 0 0 0-.156.438l-.041.124c-.044.13-.088.26-.13.39-.024.078-.06.249-.069.295a4.307 4.307 0 0 1-.2.439l-.014.027-.057.12c-.033.07-.064.137-.097.198a4.717 4.717 0 0 0-.097.188l-.037.073c-.075.148-.214.77-.27 1.03-.03.143-.06.283-.094.423l-.003.012c-.037.057-.063.112-.085.156-.01.02-.018.04-.03.059a3.418 3.418 0 0 0-.13.255l-.055.112-.149.293-.118.23-.018.037c-.05.099-.102.2-.15.307-.04.055-.167.185-.227.233l-.069.03-.062.082a.495.495 0 0 0-.045.524c.098.198.3.327.516.327a.518.518 0 0 0 .17-.028c.106-.019.5-.037.69-.045a3.11 3.11 0 0 0 .373-.03v.003c.042-.005.084-.006.132-.006.042 0 .084-.002.126-.005.478-.031.73-.19.75-.475a.426.426 0 0 0-.36-.446c-.092-.018-.184-.04-.275-.06l-.025-.006c.098-.41.188-.781.21-.86l.015-.043a.424.424 0 0 0 .406.277.75.75 0 0 0 .072-.005l.138-.018c.054.026.107.051.152.077.1.058.21.088.324.088l.027-.001.073-.002c.06 0 .108.003.15.012.174.034.35.063.524.092l.01.002c.052.009.103.015.154.022l.13.019c.092.015.191.028.3.04-.01.177-.019.27-.025.32a.573.573 0 0 0-.043.404.456.456 0 0 0 .504.358h.005c.021 0 .043 0 .064-.002l.011-.001a.682.682 0 0 0 .377-.123.46.46 0 0 0 .392-.253.467.467 0 0 0-.05-.48c-.023-.034-.037-.087-.043-.171a3.024 3.024 0 0 0-.015-.104c-.006-.036-.014-.079-.017-.106l-.003-.075-.001-.016v-.047l.002-.045-.007-.045a1.889 1.889 0 0 1-.008-.269v-.061a.72.72 0 0 1 .011-.09l.002-.014c.016-.093.017-.179.017-.248l.001-.056.006-.129a5.46 5.46 0 0 0 .007-.185c0-.038.004-.075.006-.113.006-.077.012-.166.006-.263a2.37 2.37 0 0 1-.004-.22.277.277 0 0 1 .076.083.989.989 0 0 0 .304.542c.103.095.896.468 1.306.657-.005.834-.03 1.012-.036 1.04l-.088.454-.088.453.46.032.461.032c.063.005.14.006.236.006l.25-.003a8.65 8.65 0 0 0 .752-.045l.324-.037a.438.438 0 0 0 .247.501.85.85 0 0 0 .377.092c.061.002.123.002.184.002h.27c.13 0 .27-.001.416-.017a.573.573 0 0 0 .194-.054c.047-.023.126-.066.25-.136.074-.04.191-.106.245-.133l.04-.001a.86.86 0 0 1 .22.027c.064.016.128.03.191.044l.049.01c.086.02.176.029.267.029.11 0 .222-.012.344-.041.035-.008.168-.03.21-.033.077 0 .143-.006.201-.011.043-.003.085-.008.127-.008.132 0 .66.028.819.055a.49.49 0 0 0 .083.03c.03.007.069.023.11.04l.037.015c.083.033.17.04.432.062.078.006.153.012.198.017l.026.003h.027c.117 0 .172-.019.854-.337.102-.047.228-.105.265-.12.072-.025.138-.052.202-.078l.341-.005h.051c.182 0 .343.016.495.052.206.049.425.101.633.162.087.025.192.053.31.061l.063.003c.045.003.088.006.12.011a.62.62 0 0 0 .407-.066.473.473 0 0 0 .246-.537c-.028-.135-.115-.322-.371-.443a22.42 22.42 0 0 0-1.067-.437l-.015-.006c-.055-.022-.112-.047-.169-.071-.037-.017-.073-.037-.109-.057a3.155 3.155 0 0 0-.12-.062.91.91 0 0 0-.031-.08.25.25 0 0 1-.017-.045 4.118 4.118 0 0 0-.161-.506l-.047-.111c-.046-.107-.089-.207-.11-.3l-.016-.08-.019-.026V12.658a2.044 2.044 0 0 0-.007-.099c-.003-.05-.006-.099-.003-.133a.556.556 0 0 0-.082-.357c-.02-.03-.038-.062-.056-.093-.03-.052-.065-.112-.106-.171a.792.792 0 0 1-.094-.17 4.08 4.08 0 0 0-.144-.334.654.654 0 0 1-.057-.149 2.721 2.721 0 0 0-.088-.318 1.361 1.361 0 0 1-.058-.253 1.036 1.036 0 0 0-.09-.316l-.003-.01a.618.618 0 0 0-.034-.225 3.16 3.16 0 0 1-.004-.055l-.002-.022a1.13 1.13 0 0 0-.028-.171l.002.002a.478.478 0 0 0 .311.117.457.457 0 0 0 .212-.052c.155-.08.218-.21.246-.266l.005-.01a.458.458 0 0 0 .007-.417c-.014-.035-.03-.073-.048-.11l-.035-.084a1.407 1.407 0 0 0-.026-.06c-.005-.012-.012-.024-.016-.037-.005-.173.062-.906.08-1.049.007-.05.009-.105.01-.148 0-.019 0-.037.003-.055a.741.741 0 0 0 .006-.082.517.517 0 0 0 .352.06.453.453 0 0 0 .368-.525.78.78 0 0 0-.011-.067.298.298 0 0 1-.007-.04l-.006-.037a.673.673 0 0 1-.008-.062.83.83 0 0 0 0-.228l-.014-.081-.008-.048a.73.73 0 0 0-.434-.563.654.654 0 0 1-.108-.058.57.57 0 0 0-.14-.131l-.005-.008a.669.669 0 0 0-.574-.323c-.057 0-.106.006-.148.01a.785.785 0 0 1-.1.01c-.02 0-.027-.003-.027-.003a2.22 2.22 0 0 0-.25-.082l-.056-.017a.271.271 0 0 1-.065-.027.715.715 0 0 0-.356-.113.56.56 0 0 0-.327-.047l-.234.03c-.1.012-.201.018-.308.026l-.118.009c-.092.008-.498.057-.607.073a1.401 1.401 0 0 0-.408.136 1.365 1.365 0 0 1 .073-.255 2.74 2.74 0 0 0 .266-.06c.254-.069.508-.17.8-.32a.89.89 0 0 1 .095-.043l.098-.037c.226-.083.46-.171.691-.27.072-.031.143-.064.214-.098.106-.05.206-.098.304-.132a1.92 1.92 0 0 0 .365-.171c.025-.016.073-.03.124-.047l.084-.027c.045-.016.075-.033.202-.105.064-.035.193-.108.237-.13a1.95 1.95 0 0 1 .576-.1c.113-.003.227-.003.34-.003.076 0 .152 0 .227.002a.459.459 0 0 0 .084.008c.064 0 .154-.01.32-.031a5.41 5.41 0 0 1 .265-.03c.056.007.113.009.173.009.133 0 .256-.013.375-.025l.054-.006a.451.451 0 0 0 .314-.161.521.521 0 0 0-.124-.77c-.362-.232-.41-.25-.438-.26a1.447 1.447 0 0 0-.455-.094c-.08-.003-.245-.006-.392-.006-.208 0-.295.006-.346.015l-.069.003c-.132.005-.248.009-.33.022-.069.011-.142.018-.225.022-.029.002-.06.002-.089.003a4.07 4.07 0 0 0-.157.006l-.17.016a3.753 3.753 0 0 1-.139.012c-.198.016-.406.061-.634.14l-.078.026a5.256 5.256 0 0 1-.185.063c-.176.053-.365.119-.548.234-.042.025-.096.05-.154.077-.06.028-.127.06-.195.098l-.031.018-.03.017c-.038.014-.08.027-.124.04-.064.019-.135.041-.209.07a.719.719 0 0 1-.102.033c-.116.026-.21.049-.296.073a.64.64 0 0 1-.14.017c-.076.003-.152.003-.228.003h-.02c.068-.219.18-.546.218-.631l.02-.04c.022-.046.048-.1.07-.166.032-.032.068-.064.106-.098l.07-.063a.752.752 0 0 1 .259-.178.546.546 0 0 0 .072-.029c.163-.078.305-.158.438-.243l.024-.016a.97.97 0 0 1 .15-.088c.064-.024.284-.089.404-.114.063.027.128.053.2.074.147.042.308.082.485.082a1.084 1.084 0 0 0 .356-.057c.06-.015.163-.04.26-.113.01-.006.046-.02.071-.03l.037-.016c.09-.035.217-.108.417-.223.078-.044.19-.109.244-.137a.624.624 0 0 0 .23-.076 3.068 3.068 0 0 1 .344-.15.548.548 0 0 0 .291-.24.444.444 0 0 0-.148-.62.507.507 0 0 0-.107-.051.67.67 0 0 0-.25-.048m-7.966 4 .02-.005c.05-.01.115-.01.184-.01l.05-.001c.17-.003.33-.02.486-.038l.119-.012.234-.003c.134-.002.236-.003.315-.006l-.032.02a.912.912 0 0 0-.172.141.672.672 0 0 0-.211.307c-.027.02-.054.04-.08.062-.054.04-.1.076-.138.095a1.91 1.91 0 0 0-.14.073l-.068.038c-.195.11-.347.196-.466.268l-.005-.045a6.295 6.295 0 0 0-.066-.53 1.306 1.306 0 0 1-.03-.353M6.3 4.318a1.873 1.873 0 0 1-.291-.349c.097.005.233.017.406.036l.026.003.116.012c.156.017.319.035.489.038h.051c.063 0 .124.001.167.01.106.02.212.063.322.135.09.057.18.1.275.13a.793.793 0 0 0 .386.02c.101-.02.21-.044.317-.072a.56.56 0 0 1 .13-.024l.02.038c.01.027.026.063.05.102a1.093 1.093 0 0 0 .208.447c.02.055.047.094.06.115.033.05.06.107.09.166.031.066.068.14.112.214-.035.12-.095.244-.188.383a1.257 1.257 0 0 0-.076.127.83.83 0 0 1-.1.16.812.812 0 0 0-.149.278c-.002-.045-.007-.09-.012-.134a.624.624 0 0 1-.005-.12.633.633 0 0 0-.077-.45.942.942 0 0 0-.035-.131l-.005-.018a.47.47 0 0 0-.327-.326c.002 0-.006-.005-.013-.008l-.059-.027a.695.695 0 0 0-.275-.058.607.607 0 0 0-.137.015H7.633l-.02.001a.235.235 0 0 1-.076-.009.627.627 0 0 0-.115-.026 3.376 3.376 0 0 0-.352-.337 1.115 1.115 0 0 0-.089-.061l-.016-.01c-.012-.01-.024-.017-.037-.025l-.016-.01a.82.82 0 0 0-.258-.182l-.027-.014a.445.445 0 0 0-.21-.051c-.046 0-.081.008-.099.01a.156.156 0 0 1-.018.002m5.494 1.452c.047-.333.1-.904-.053-1.101a.29.29 0 0 1-.066-.12.77.77 0 0 1-.016-.207c.006-.046.013-.048.046-.057l.06-.016c.05-.013.094-.025.132-.032l.005.001a272.363 272.363 0 0 0 .014 1.396.655.655 0 0 0-.016.068l-.014.013a.557.557 0 0 1-.052.039c-.014.008-.027.012-.04.017m1.974.958.037-.019c.116-.062.226-.12.336-.165l.054-.022c.029-.012.057-.024.085-.034l.002.058c.002.021.002.043.003.065-.075.046-.15.094-.224.141a2.907 2.907 0 0 0-.346.253l-.015.013a.832.832 0 0 0-.12.118v-.049l-.001-.008c.005-.021.02-.061.03-.089l.01-.026a.932.932 0 0 1 .075-.148c.02-.019.048-.05.074-.09m-3.694 1.756c-.003-.124-.03-.23-.052-.318-.009-.032-.017-.065-.023-.098a.493.493 0 0 0-.065-.17c-.006-.008-.02-.034-.01-.118a1.878 1.878 0 0 0 .025-.153 1.28 1.28 0 0 1 .05-.21c.033-.099.078-.225.146-.324.049-.07.078-.14.097-.184l.025-.06.052-.12.02.279c.047.59.08 1.315.101 2.153l.002.091a.754.754 0 0 1-.049.023l-.095.044c-.017.008-.033.014-.048.022l-.042.022a.077.077 0 0 1-.001-.01c-.01-.085-.02-.181-.04-.28a6.737 6.737 0 0 1-.072-.454l-.001-.012c-.003-.028-.007-.071-.02-.122m8.67.283c.008-.04.015-.08.02-.118.003-.017.024-.084.032-.109.018-.06.03-.1.032-.159a1.449 1.449 0 0 0-.062-.473c-.012-.04-.026-.078-.04-.117-.012-.037-.025-.074-.035-.111-.007-.029-.016-.056-.024-.084a.589.589 0 0 1-.02-.07 4.164 4.164 0 0 0-.043-.246l-.012-.058a3.671 3.671 0 0 0-.031-.149l.08.022c.085.091.23.25.31.342v.038a2.736 2.736 0 0 0-.01.187c-.001.043-.002.086-.006.129-.012.119-.026.215-.044.304-.03.141-.048.279-.064.412l-.01.068a1.178 1.178 0 0 0-.006.266.796.796 0 0 0-.067-.074m-1.977-1.294c.093-.025.184-.053.273-.08l.033-.011c.027-.008.05-.015.072-.02.052.007.14.021.213.035l.015.03.004.024.007.055c.01.072.021.162.05.256.038.123.104.23.198.315.032.028.062.06.09.095-.047.088-.123.29-.143.393-.003.015-.008.03-.013.044l-.018.058c-.068.235.053.635.238.792l.074.07c.11.106.14.134.187.163l.043.046.043.047.038.043a.29.29 0 0 1 .04.11c.004.116.018.233.045.358l.036.178c.023.115.047.23.072.343l.014.06.03.137a.772.772 0 0 0-.105-.185l-.108-.148c-.098-.133-.2-.272-.31-.407l-.058-.117-.131-.27c-.21-.422-.383-.877-.543-1.307a1.47 1.47 0 0 0-.094-.208c-.038-.125-.083-.232-.126-.336l-.006-.016-.02-.046a1.07 1.07 0 0 1-.095-.308 5.205 5.205 0 0 0-.045-.194m-10.82 3.122c.019-.058.026-.11.031-.145l.002-.014a.427.427 0 0 1 .032-.126c.08-.157.14-.331.176-.52a.932.932 0 0 1 .058-.185c.046-.11.074-.217.098-.311l.036-.132c.021-.067.041-.134.06-.202l.043-.144c.06-.2.268-.716.325-.852l.094.01c.014.008.034.023.046.032l.068.05.073.054a.796.796 0 0 1 .052.04l-.03.214c-.073.524-.105.78-.098.912v.058l-.001.062c-.03.035-.068.077-.09.098a1.333 1.333 0 0 0-.188.238l-.041.06a6.321 6.321 0 0 0-.23.351l-.017.027-.019.03-.058.093c-.044.065-.3.426-.487.684l.026-.107c.024-.1.036-.189.04-.274m5.831.665c-.074-.032-.25-.29-.25-.741 0-.45.176-.709.25-.74.074.031.25.29.25.74s-.176.709-.25.74m1.267 1.206c.197-.2.444-.41.739-.62.295-.212.426-.674.564-1.394-.008.11-.011.174-.006.228.002.03.007.188.01.874v.07l.006.514-.001.006-.015.05a1.289 1.289 0 0 0-.06.321c-.001.021-.01.084-.018.122a.644.644 0 0 0-.079.301c-.002.117-.012.23-.032.337-.013.074-.017.14-.021.2a.854.854 0 0 1-.011.11 1.34 1.34 0 0 0-.013.079v.002c-.044.065-.079.129-.11.187-.032.06-.06.111-.09.148a.482.482 0 0 0-.082.162l-.006.01-.007.011c-.022.028-.077.091-.11.125-.03.018-.055.036-.078.052a.583.583 0 0 1-.05.032.577.577 0 0 0-.22.18c-.018.023-.047.052-.078.083l-.05.051-.073-.365c-.018-.089-.063-.448-.109-1.876M7.027 11.38c.024-.035.045-.069.063-.1l.024-.039c.048-.076.105-.153.166-.234l.045-.061c.064-.086.125-.174.186-.261.041.077.085.151.126.211.008.09.024.182.047.28.01.044.016.1.022.159.005.059.013.125.025.195l.009.222-.004.148a4.93 4.93 0 0 0-.002.416c.006.122-.003.25-.012.386l-.006.08-.019.212-.033-.006c-.092-.015-.18-.027-.215-.034a9.75 9.75 0 0 0-.247-.047c-.062-.01-.124-.022-.185-.033a2.65 2.65 0 0 0-.326-.05c.005-.064.012-.13.022-.2l.01-.08c.006-.048.012-.096.02-.143l.027-.075c.043-.122.101-.289.131-.394.042-.144.083-.3.11-.466l.001-.003.002-.011a.91.91 0 0 1 .013-.072m10.144.523c-.002-.008-.15-.632-.278-1.155l.053.083c.071.11.167.26.191.303.034.074.084.14.146.22l.005.005a9.393 9.393 0 0 0 .371.703c.041.088.125.186.353.402.1.096.174.166.234.217.055.072.116.117.157.147l.014.01.05.065c.028.036.055.069.072.097a.62.62 0 0 0 .136.157c.052.042.102.1.16.169l.044.05.016.065a4.65 4.65 0 0 0 .112.382 7.228 7.228 0 0 0-.149-.002h-.054l-.075-.028a2.267 2.267 0 0 1-.236-.1 4.113 4.113 0 0 1-.201-.121.697.697 0 0 0-.058-.033c-.026-.012-.05-.027-.075-.04a1.485 1.485 0 0 0-.216-.105.25.25 0 0 1-.094-.058l-.008-.009c-.063-.071-.123-.139-.16-.203a3.855 3.855 0 0 1-.12-.218c-.072-.14-.363-.913-.395-1.024l.005.02" style="fill:#6f7d35;fill-opacity:1;fill-rule:nonzero;stroke:none;stroke-width:.537257"/></svg>