<svg width="67.059" height="59.999" viewBox="0 0 17.743 15.875" xmlns="http://www.w3.org/2000/svg"><path d="M5.834 7.939a3.04 3.04 0 0 0 3.038 3.037 3.04 3.04 0 0 0 3.037-3.037 3.04 3.04 0 0 0-3.037-3.037 3.04 3.04 0 0 0-3.038 3.037" style="fill:#7751a1;fill-opacity:1;fill-rule:nonzero;stroke:none;stroke-width:.535138"/><path d="M9.834.388c.19 0 .387.002.59.005-.066.442-.125.96-.175 1.548 1.4.626 2.593 1.691 3.256 3.085 1.476 3.103-.332 6.948-3.484 7.478.008.5.02.94.033 1.32l.03-.001c3.455-.246 6.046-3.53 6.255-6.855.173-2.11-.533-4.18-1.857-5.856-.042-.045.005-.111.056-.111a.06.06 0 0 1 .04.015c2.941 2.341 3.61 6.79 1.708 10.004l-.237.405-.275.38c-.145.233-.417.515-.602.72a6.297 6.297 0 0 1-2.776 1.748 6.449 6.449 0 0 1-2.307.29c.025.411.055.707.091.882-.386.03-.912.045-1.581.045-.445 0-.765-.008-.958-.023.057-.22.106-.69.146-1.406-1.525-.605-2.84-1.719-3.548-3.208-1.506-3.168.408-7.108 3.682-7.506a82.988 82.988 0 0 0-.03-1.301c-.077.003-.154.003-.231.009-3.454.246-6.045 3.53-6.255 6.855-.172 2.11.533 4.18 1.857 5.855.042.045-.005.112-.056.112a.061.061 0 0 1-.04-.016c-2.941-2.34-3.61-6.79-1.708-10.003l.237-.406.276-.38c.144-.233.416-.514.602-.718a6.294 6.294 0 0 1 2.775-1.75 6.452 6.452 0 0 1 1.96-.298c.186 0 .371.008.557.022a45.435 45.435 0 0 0-.045-.87 24.58 24.58 0 0 1 2.014-.07m.173 10.9a3.818 3.818 0 0 0 2.398-1.46c2.178-2.878.639-6.237-2.197-7.383-.027.363-.05.75-.072 1.16 1.857.685 3.163 2.567 2.753 4.598-.275 1.418-1.375 2.7-2.842 2.937-.014.003-.027.003-.04.006v.142m-2.193 2.248c.015-.35.029-.744.04-1.182-1.986-.603-3.427-2.56-3-4.68.276-1.418 1.376-2.7 2.844-2.937.077-.015.155-.025.233-.033v-.142A3.805 3.805 0 0 0 5.34 6.049c-2.248 2.97-.538 6.454 2.474 7.487m.072-2.566.004-.16a3.1 3.1 0 0 0 .23.069l-.005-.003c.095.024.193.044.292.06l.05.008c.031.005.062.009.094.012l.065.008a2.703 2.703 0 0 0 .556-.004c.08-.008.16-.02.239-.035l.048-.008a3.04 3.04 0 0 0 2.43-3.314c-.003-.034-.01-.067-.015-.101a3.155 3.155 0 0 0-.04-.226c-.008-.037-.019-.073-.028-.11a3.028 3.028 0 0 0-.188-.517l-.04-.084a2.948 2.948 0 0 0-.127-.223l-.03-.05a3.048 3.048 0 0 0-.662-.73 3.38 3.38 0 0 0-.684-.536l-.005.122a3.081 3.081 0 0 0-.725-.206l-.109-.017a2.827 2.827 0 0 0-.641-.01c-.037.002-.073.008-.11.013l-.154.024a2.35 2.35 0 0 0-.247.056 3.04 3.04 0 0 0-2.23 3.265c.004.035.011.068.016.101.011.076.024.152.04.226.008.037.018.073.028.11.019.07.04.14.063.208.01.034.024.068.037.101.027.071.056.14.088.209l.04.083c.04.077.082.15.127.223l.03.05c.18.278.404.525.663.73.259.266.567.487.9.656M9.835 0C9.047 0 8.36.026 7.787.075l-.376.031.023.377c.009.139.017.286.025.44l-.15-.003c-.72 0-1.42.107-2.078.316a6.72 6.72 0 0 0-3.047 1.97c-.176.192-.395.431-.534.65l-.268.37-.01.016-.01.016-.12.203c-.045.08-.084.145-.113.202l-.003-.002C.152 6.306-.207 8.29.116 10.248c.325 1.984 1.321 3.727 2.804 4.91.081.067.182.104.286.104a.46.46 0 0 0 .42-.278.447.447 0 0 0-.066-.466C2.26 12.87 1.63 10.888 1.79 8.94c.182-2.892 2.416-6.147 5.727-6.486.005.183.008.37.012.562C6.087 3.3 4.84 4.24 4.07 5.638c-.92 1.672-.987 3.682-.181 5.379.686 1.442 1.92 2.603 3.495 3.293-.043.66-.087.94-.118 1.059l-.116.445.46.037c.2.016.524.024.988.024.688 0 1.215-.015 1.61-.046l.437-.034-.088-.429a3.808 3.808 0 0 1-.053-.41 6.854 6.854 0 0 0 2.008-.316 6.72 6.72 0 0 0 2.944-1.857l.103-.113c.176-.192.395-.43.534-.65l.268-.37.01-.016.01-.016.118-.203c.046-.08.085-.145.114-.202l.003.002c.974-1.646 1.333-3.63 1.01-5.588-.326-1.984-1.322-3.727-2.805-4.91a.443.443 0 0 0-.286-.104.46.46 0 0 0-.42.278.446.446 0 0 0 .066.466c1.301 1.649 1.93 3.63 1.77 5.578-.178 2.834-2.326 6.016-5.527 6.462l-.014-.582c1.4-.338 2.599-1.305 3.323-2.695.858-1.646.902-3.613.119-5.262-.637-1.339-1.766-2.45-3.197-3.154.045-.474.095-.896.149-1.256l.066-.437-.443-.006A40.88 40.88 0 0 0 9.833 0m.702 3.35.019-.317a4.848 4.848 0 0 1 1.936 1.856 4.793 4.793 0 0 0-1.955-1.54M7.51 10.271a2.792 2.792 0 0 1-.25-.227l-.017-.018-.02-.015a2.657 2.657 0 0 1-.578-.637l-.01-.016-.017-.029a2.633 2.633 0 0 1-.11-.194l-.028-.058-.007-.016a2.512 2.512 0 0 1-.077-.181l-.033-.088a2.715 2.715 0 0 1-.054-.182l-.008-.03-.017-.065a2.53 2.53 0 0 1-.034-.197l-.008-.047-.006-.042A2.645 2.645 0 0 1 8.05 5.418c.036-.012.073-.022.11-.032l.024-.006.012-.003a3.436 3.436 0 0 1 .337-.066l.025-.003.071-.01a2.426 2.426 0 0 1 .47 0l.09.01.057.009.037.006a2.647 2.647 0 0 1 .633.18l.399.17c.057.051.113.103.165.158l.018.017.019.016c.226.18.42.394.578.637l.01.016.017.028c.042.067.078.131.11.195l.029.058.006.015a2.683 2.683 0 0 1 .164.452l.008.03.017.065c.015.068.026.141.034.197l.008.047.006.042a2.64 2.64 0 0 1-1.646 2.75c-.154.062-.314.11-.476.143-.016.002-.029.003-.041.006-.063.01-.136.024-.21.03a2.61 2.61 0 0 1-.481.004l-.043-.005-.017-.002c-.026-.003-.054-.006-.08-.011l-.02-.003-.023-.003a2.575 2.575 0 0 1-.257-.053v.001a3.163 3.163 0 0 1-.197-.059l-.502-.173Zm-.063 2.703a4.848 4.848 0 0 1-2.201-1.992 4.797 4.797 0 0 0 2.212 1.646l-.011.346" style="fill:#7751a1;fill-opacity:1;fill-rule:nonzero;stroke:none;stroke-width:.535138"/><path d="M6.414 7.939a2.46 2.46 0 0 0 2.458 2.458 2.46 2.46 0 0 0 2.458-2.458 2.46 2.46 0 0 0-2.458-2.458A2.46 2.46 0 0 0 6.414 7.94" style="fill:#000;fill-opacity:1;fill-rule:nonzero;stroke:none;stroke-width:.535138"/><path d="M14.577 1.016c-.058-.052-.148.039-.095.096 1.324 1.675 2.03 3.746 1.857 5.855-.21 3.325-2.8 6.61-6.255 6.856h-.03c-.014-.38-.025-.82-.033-1.32 3.152-.53 4.96-4.374 3.484-7.478-.662-1.394-1.856-2.458-3.256-3.085.05-.587.109-1.105.175-1.548A27.168 27.168 0 0 0 7.82.459c.016.276.031.568.045.87a6.574 6.574 0 0 0-2.517.275 6.304 6.304 0 0 0-2.776 1.75c-.184.205-.457.486-.602.719l-.275.38-.237.406C-.444 8.072.225 12.52 3.167 14.86c.058.053.148-.038.095-.095-1.324-1.675-2.03-3.746-1.857-5.855.21-3.325 2.8-6.61 6.254-6.856a3.62 3.62 0 0 1 .232-.009c.013.413.023.847.03 1.301-3.274.398-5.188 4.338-3.682 7.506.708 1.49 2.023 2.604 3.548 3.209-.04.715-.089 1.186-.146 1.406.193.015.513.023.958.023.668 0 1.195-.015 1.58-.044a7.144 7.144 0 0 1-.09-.883 6.517 6.517 0 0 0 2.307-.29 6.304 6.304 0 0 0 2.776-1.75c.185-.204.458-.485.602-.718l.275-.38.237-.406c1.902-3.214 1.233-7.662-1.709-10.003M8.084 5.01l.11-.029a3.01 3.01 0 0 1 .291-.05 2.825 2.825 0 0 1 .86.014 3.036 3.036 0 0 1 .725.206l.005-.123c.25.149.482.329.684.536.258.205.481.452.662.73l.03.05c.045.072.087.147.127.223l.04.083a2.879 2.879 0 0 1 .188.518c.01.037.02.073.028.11a2.8 2.8 0 0 1 .04.226c.005.033.012.067.016.1a3.04 3.04 0 0 1-2.43 3.314l-.05.009a2.6 2.6 0 0 1-.538.05c-.086 0-.171-.005-.255-.012l-.067-.006-.093-.012-.05-.008a2.926 2.926 0 0 1-.292-.06 3.036 3.036 0 0 1-.225-.066l-.003.16a3.414 3.414 0 0 1-.901-.655 3.07 3.07 0 0 1-.662-.73l-.031-.05a2.96 2.96 0 0 1-.355-.825 2.828 2.828 0 0 1-.068-.335c-.005-.034-.012-.067-.015-.101A3.041 3.041 0 0 1 7.93 5.056c.05-.017.102-.03.153-.044m4.32 4.82a3.82 3.82 0 0 1-2.397 1.46v-.143c.013-.003.026-.003.04-.006 1.467-.236 2.567-1.519 2.843-2.936.41-2.032-.897-3.914-2.755-4.598.022-.41.046-.798.073-1.16 2.836 1.146 4.375 4.504 2.196 7.382M5.34 6.052a3.81 3.81 0 0 1 2.59-1.487v.142a3.449 3.449 0 0 0-.233.033C6.23 4.977 5.13 6.26 4.855 7.677c-.429 2.12 1.014 4.078 3 4.68-.012.438-.026.832-.042 1.182-3.01-1.032-4.722-4.516-2.473-7.487" style="fill:#000;fill-opacity:1;fill-rule:nonzero;stroke:none;stroke-width:.535138"/></svg>