<svg width="58.258" height="60.005" viewBox="0 0 15.414 15.876" xmlns="http://www.w3.org/2000/svg"><path d="M15.106 8.467a.512.512 0 0 1-.06-.054c-.138-.135-.147-.263-.025-.41.128-.156.246-.32.321-.509.138-.348.064-.679-.107-.996a.383.383 0 0 0-.17-.156.811.811 0 0 0-.378-.085c-.103 0-.207.015-.311.032-.09.014-.176.035-.266.035a.459.459 0 0 1-.083-.006.277.277 0 0 1-.225-.184.465.465 0 0 1-.014-.276c.03-.14.1-.264.17-.386.17-.289.314-.588.412-.91a58.2 58.2 0 0 1 .261-.833c.068-.209.15-.411.183-.63a.566.566 0 0 0-.13-.478c-.206-.243-.495-.332-.772-.445a.565.565 0 0 0-.215-.037h-.06c-.195.01-.365.092-.537.174-.29.139-.568.301-.875.406-.164.056-.3.162-.42.287-.057.059-.053.101.01.145.015.01.028.023.042.034a.886.886 0 0 0 .55.166c.047 0 .096-.003.145-.007.026-.003.05-.009.076-.009.018 0 .037.003.056.013.188.101.382.162.586.162.081 0 .164-.009.248-.03a1.223 1.223 0 0 1 .395-.03c.026.003.057.001.066.035.009.033-.017.048-.037.066a.568.568 0 0 1-.237.109.976.976 0 0 1-.25.036.632.632 0 0 1-.236-.043c-.036-.013-.055-.07-.086-.07a.027.027 0 0 0-.018.007c-.035.02-.046.08-.068.124l-.019.04a6.29 6.29 0 0 1-.288.52.854.854 0 0 1-.402.363 2.138 2.138 0 0 1-.315.109.428.428 0 0 1-.086.017c-.04 0-.045-.028-.067-.114-.081-.32-.144-.646-.195-.972-.067-.42-.137-.84-.122-1.265.003-.083 0-.164-.004-.245V2.158a2.434 2.434 0 0 0-.095-.532 2.113 2.113 0 0 0-.08-.278c-.06-.15-.143-.278-.306-.336-.041-.015-.079-.043-.115-.07-.213-.149-.384-.345-.572-.523-.233-.221-.49-.414-.825-.418L9.496 0c-.395 0-.787.056-1.174.144a.366.366 0 0 0-.203.129c-.04.05-.052.09-.036.122-.014.053.02.09.103.108.191.043.384.075.578.093.05.004.073.018.075.075.007.211.102.378.246.519l.004-.043c.014.015.026.029.041.042.073.062.15.119.228.173l-.004.044c.132.091.27.172.413.242.073.036.1.08.108.144-.005.431-.012.863-.003 1.295.005.208.014.468.025.73l.01.227c.01.213.02.419.03.589a.662.662 0 0 1-.102.373c-.14.255-.282.513-.361.795-.102.364-.025.711.134 1.042.094.195.14.393.082.603-.11.398-.29.753-.581 1.028-.002.39-.005.786-.005 1.196l.001.599c.888-.124 1.779-.22 2.672-.301.101-.01.202-.015.301-.015.206 0 .409.023.607.078.004 0 .528-.039.757-.233.086-.08.176-.155.269-.226a.29.29 0 0 0 .1-.123.821.821 0 0 1 .137-.23c.015-.018.033-.039.058-.039l.01.001c.032.007.04.037.041.063.006.22.019.436-.2.586-.138.094-.267.201-.413.278v.001l-.83.46v-.002l-.256.17c-.19.122-.374.252-.498.45a4.343 4.343 0 0 0-.305.613.258.258 0 0 1-.097.123 2.142 2.142 0 0 0-.495.47c-.02.026-.028.045-.025.06l.108.05c.075.016.15.028.228.028l.033-.001c.338-.012.646-.128.944-.278.137-.069.26-.165.404-.219.163-.06.303-.155.436-.266a5.631 5.631 0 0 1 1.143-.768c.21-.102.397-.235.521-.433.182-.289.317-.602.447-.916.058-.142.124-.281.154-.432.06-.299.018-.564-.25-.754m-.684-.323c-.161.136-.348.227-.538.31-.246.105-.502.186-.77.186h-.034l-.075-.001c-.166 0-.328.015-.493.046-.074.014-.147.02-.22.02-.208 0-.412-.051-.61-.126-.044-.015-.058-.038-.037-.081.023-.046.044-.093.066-.14.117-.247.274-.466.493-.633a.744.744 0 0 0 .16-.18c.224-.326.545-.528.894-.694.142-.067.287-.125.442-.15.016-.004.035-.01.05-.01.014 0 .025.003.032.02.014.031-.022.053-.045.07-.207.155-.419.304-.622.463-.217.17-.408.365-.524.622-.017.038-.048.06-.08.083a1.512 1.512 0 0 0-.29.296c-.044.058-.018.071.037.075.028 0 .055.003.081.003.1 0 .198-.012.295-.04a.5.5 0 0 1 .145-.023c.029 0 .057.003.086.01.104.024.207.034.31.034.22 0 .436-.046.654-.096.187-.042.37-.105.56-.132.014-.001.03-.007.043-.007.01 0 .02.003.025.013.017.029-.016.047-.035.063m-4.64 3.773c.26.123.521.244.782.365a.555.555 0 0 1 .08-.135c.169-.217.35-.392.55-.532.085-.197.186-.423.323-.64.169-.271.409-.44.621-.576.018-.012.893-.414.91-.425-.036 0-.493-.31-.531-.31-.083 0-.68.142-.772.15-1.01.093-1.676.191-2.475.303l-.165-.321c-.078.89-.032 1.16-.078 1.685l.114.078c.175.118.378.232.642.358m1.768 1.28c-.213-.105-.43-.205-.645-.306l-.015-.003a.525.525 0 0 1-.2-.1c-.362-.168.147-.763-.213-.935-.24-.115-1.23-.223-1.45-.372.007.695-.094 1.71-.078 2.219.15.083.301.165.45.25.304.176.623.259.962.259.06 0 .12-.003.18-.007l.049-.001c.055 0 .109.009.162.033.144.062.293.112.444.153.232.064.467.11.707.11.07 0 .14-.003.21-.012a.943.943 0 0 0 .528-.214c.04-.037.047-.067.013-.115a2.86 2.86 0 0 0-1.104-.958M6.004 11.72c-.37 0-1.034-.091-1.359-.012-.286.07-.962.793-1.289.94.22.113 1.306.362 1.454.567.363.168.614.439.84.702.049.058.08.122.098.19.368.117.941.21 1.332.267.047-.464-.025-1.601.007-2.48l-.09-.219c-.246-.027-.773.045-.993.045m-1.413 1.842a.17.17 0 0 1-.08-.067 1.147 1.147 0 0 0-.516-.436c-.25-.107-.503-.2-.759-.29a.839.839 0 0 1-.576-.648.693.693 0 0 1 .013-.383c.01-.029.013-.071.055-.071h.001c.038 0 .04.04.048.068l.052.181c.04.145.095.28.173.405.101.145.248.285.46.382a4.76 4.76 0 0 1 .448-.252c.372-.178.755-.33 1.156-.429.374-.091.75-.13 1.13-.13.245 0 .644-.027.89.001.028-.886-.104-1.915-.09-3.172-.055-.106-.112-.212-.164-.32-.2-.414-.456-.792-.713-1.17-.158-.232-.31-.466-.347-.754-.073-.568-.173-1.13-.391-1.663-.027-.066.024-.054.055-.06a4.16 4.16 0 0 0 .747-.203c.195-.077.398-.159.48-.366a.422.422 0 0 1 .245-.258c.084-.037.086-.078.037-.16a.383.383 0 0 0-.098-.104 1.275 1.275 0 0 0-.452-.22 3.042 3.042 0 0 0-.83-.097c-.084 0-.168 0-.253.006-.441.015-.874.085-1.3.196-.318.082-.416.22-.418.55-.002.295.062.58.129.864.06.256.133.51.21.762.096.222.581.8.618.842l.003.003v.001c.13.163.22.35.282.553.013.043-.004.066-.04.087a.714.714 0 0 1-.373.092l-.053-.001c-.32-.015-.62-.106-.917-.217a.641.641 0 0 0-.29-.041c-.064.006-.13.009-.193.009-.42 0-.807-.134-1.172-.354-.042-.025-.09-.05-.112-.135l.48.124c.236.06.474.1.714.1.116 0 .232-.01.349-.03a.445.445 0 0 1 .063-.007c.062 0 .123.015.184.037.314.114.628.23.965.255l.072.003c.06 0 .064-.017.042-.09-.299-.767-.606-.962-.606-.962-.37-.207-.743-.409-1.124-.596a1.507 1.507 0 0 0-.671-.157c-.188 0-.376.034-.566.097-.339.113-.579.453-.525.762.044.246.121.483.25.702.113.192.259.36.394.537.195.255.4.503.597.757.117.152.255.288.354.454.053.09.066.185.008.274-.049.072-.123.09-.201.09h-.05c-.14-.01-.27-.058-.402-.102-.376-.128-.734-.301-1.101-.452a.599.599 0 0 0-.229-.049.473.473 0 0 0-.193.04c-.298.128-.529.545-.485.868a.565.565 0 0 0 .025.096c.053.158.182.241.317.317.503.28 1.024.522 1.55.754.285.125.582.211.891.252.058.007.115.014.172.014.119 0 .233-.025.334-.112a.057.057 0 0 1 .04-.015c.015 0 .03.003.046.006.045.006.089.01.133.01a.631.631 0 0 0 .188-.026c.127-.037.145-.092.06-.192a1.446 1.446 0 0 0-.302-.256.191.191 0 0 1-.08-.092 1.331 1.331 0 0 0-.62-.724c-.036-.02-.068-.049-.101-.074-.02-.015-.04-.029-.038-.059a.123.123 0 0 1 .045-.009c.032 0 .064.01.095.018.346.085.627.257.79.588.04.08.098.14.175.188.122.074.229.167.314.281.131.176.123.39-.059.526a.631.631 0 0 1-.382.13h-.051a.78.78 0 0 0-.322.057.383.383 0 0 1-.155.027h-.022c-.437-.015-.816-.185-1.165-.434-.018-.013-.03-.019-.04-.019-.012 0-.018.013-.026.037-.025.084-.056.166-.078.25-.084.32-.178.637-.21.97-.028.294-.087.585-.284.823a.258.258 0 0 0-.048.277c.037.095.092.184.124.28.071.21.221.29.431.304a.845.845 0 0 1 .328.096c.229.12.458.24.686.362.28.15.565.286.887.316.15.015.294.061.44.095.228.053.458.094.691.094.061 0 .123-.003.186-.01a.808.808 0 0 0 .35-.104c.032-.02.054-.041.022-.08-.215-.249-.438-.489-.751-.618" style="fill:#000;fill-opacity:1;fill-rule:nonzero;stroke:none;stroke-width:.510931"/><path d="m7.344 15.688-.535-.003-.511-.007.08-.505c.25-1.59.378-4.324.378-8.13 0-3.342-.082-4.427-.152-4.748l-.107-.498.508-.037c.362-.026.843-.04 1.47-.04.422 0 .718.008.904.021l.535.04-.142.518c-.092.34-.248 1.976-.248 9.124 0 1.45.034 2.707.1 3.732l.029.435-.435.035c-.52.041-1.151.063-1.874.063" style="fill:#807e74;fill-opacity:1;fill-rule:nonzero;stroke:none;stroke-width:.510931"/><path d="M8.475 1.908c.418 0 .709.007.89.02l.307.023-.081.298c-.116.426-.254 2.363-.254 9.174 0 1.454.033 2.714.1 3.744l.017.25-.25.02c-.518.042-1.142.063-1.86.063-.172 0-.35 0-.532-.003l-.295-.004.046-.29c.253-1.599.38-4.344.38-8.159 0-2.696-.052-4.307-.155-4.788l-.062-.286.292-.022c.358-.026.834-.04 1.457-.04m0-.375c-.632 0-1.118.013-1.484.04l-.292.022-.43.032.09.422.062.286c.067.313.147 1.384.147 4.71 0 3.794-.126 6.52-.376 8.099l-.046.29-.068.43.434.005.294.004.538.003c.728 0 1.364-.021 1.89-.064l.25-.02.368-.03-.024-.369-.016-.25a58.894 58.894 0 0 1-.1-3.72c0-7.126.151-8.744.241-9.074l.081-.298.12-.439-.453-.034-.308-.024c-.19-.014-.49-.021-.918-.021" style="fill:#000;fill-opacity:1;fill-rule:nonzero;stroke:none;stroke-width:.510931"/></svg>