<svg width="100.956" height="60" viewBox="0 0 26.711 15.875" xmlns="http://www.w3.org/2000/svg"><path d="M11.113 4.625c-.409-.141-.816-.28-1.217-.412-2.783-.921-4.436-.108-5.217.52-1.393.87-2.32 2.1-2.32 4.035 0 1.846 1.373 4.342 2.383 5.489 1.125.995 2.242 1.134 5.154 1.134 7.75 0 16.309-1.55 12.703-5.56-3.903-.923-7.977-2.909-11.486-5.206" style="fill:#f7941e;fill-opacity:1;fill-rule:nonzero;stroke:none;stroke-width:.683569"/><path d="M13.553 7.134c-.112.889-.141 2.385-.089 4.487.037 1.49.087 2.372.15 2.644a10.1 10.1 0 0 1-.748.04c-.21.006-.362.006-.454 0 .083-.353.087-2.038.012-5.054a34.039 34.039 0 0 0-.104-2.055c.33-.036.74-.057 1.233-.062" style="fill:#000;fill-opacity:1;fill-rule:nonzero;stroke:none;stroke-width:.683569"/><path d="m26.694 10 .017-.182c-.996-.13-1.97-.426-2.923-.759-2.873-1.001-5.612-2.35-8.318-3.738C11.845 3.488 8.485 2.035 4.97 0l-.095.155c.688.808 1.27.974 2.062 1.667.33.282.676.564 1.034.846-.788-.02-1.873.065-3.312.317-.013.002.046.015.033.017-7.235 1.492-5.25 7.687.196 11.577.082.059.151.106.209.143v.001c.099.064.161.096.193.102 1 .498 2.944 1.05 5.547 1.05 8.264 0 18.136-2.173 14.195-5.752l.046.002c.54.014 1.085-.019 1.616-.127m-16.9 5.268c-1.631 0-3.833.039-5.297-1.689-.21-.311-.438-.67-.663-1.065a4.033 4.033 0 0 0-.142-.257C2.47 9.99 1.592 6.73 5.44 4.621c.005 0 .01 0 .014-.002.893-.396 2.288-.613 4.341-.056.46.125.935.265 1.42.417.012.004.023.01.034.016 3.28 2.1 7.092 3.906 10.722 4.705a.128.128 0 0 1 .059.028c.084.069.15.131.194.186 3.304 4.099-4.86 5.352-12.429 5.352" style="fill:#000;fill-opacity:1;fill-rule:nonzero;stroke:none;stroke-width:.683569"/></svg>