<svg width="59.995" height="60" viewBox="0 0 15.874 15.875" xmlns="http://www.w3.org/2000/svg"><path d="M7.937 0A7.937 7.937 0 0 0 0 7.937 7.937 7.937 0 1 0 7.937 0m.028 15.325c-4.111 0-7.446-3.28-7.446-7.327C.52 3.953 3.854.672 7.965.672a7.51 7.51 0 0 1 3.92 1.097c-.52-.13-1.065-.2-1.626-.2-3.61 0-6.536 2.879-6.536 6.43 0 3.55 2.927 6.43 6.536 6.43.561 0 1.106-.07 1.626-.2a7.51 7.51 0 0 1-3.92 1.096m4.367-3.155a4.046 4.046 0 0 1-3.362.22c-.726-.276-1.38-.77-1.8-1.427-.866-1.33-.621-3.223.638-4.212.6-.479 1.42-.65 2.154-.469 1.051.247 1.891 1.265 1.598 2.36a1.6 1.6 0 0 1-.484.797c.14-.269.213-.556.2-.832-.037-1.328-1.732-1.858-2.617-.947-.589.636-.641 1.675-.105 2.354.682.824 1.945 1.017 2.863.492.25-.142.47-.332.656-.55.118-.155.233-.327.328-.498.266-.504.398-1.08.365-1.65a3.312 3.312 0 0 0-.451-1.489 3.634 3.634 0 0 0-.998-1.052C9.51 3.94 6.917 4.23 5.251 5.75c1.557-2.775 5.47-3.178 7.818-1.074l.285.288c.109.11.245.295.346.417a4.76 4.76 0 0 1 .824 3.645c-.24 1.292-1.024 2.51-2.192 3.145" style="fill:#000;fill-opacity:1;fill-rule:nonzero;stroke:none;stroke-width:1.27849"/><path d="m13.171 5.733-.104-.13a3.465 3.465 0 0 0-.195-.234c-.06-.061-.208-.211-.272-.274a4.742 4.742 0 0 0-3.191-1.18c.782.12 1.53.416 2.175.889a4.21 4.21 0 0 1 1.142 1.21l.01.014c.313.534.495 1.139.529 1.747a3.722 3.722 0 0 1-.429 1.95l-.009.015a4.817 4.817 0 0 1-.373.562l-.018.022c-.24.284-.514.512-.81.68-1.169.667-2.747.392-3.59-.625l-.008-.011c-.707-.896-.647-2.258.135-3.102l.01-.01c.139-.145.297-.265.467-.361-.2.07-.386.171-.55.302-1.007.791-1.237 2.337-.513 3.448.341.532.88.959 1.524 1.205.921.362 1.998.29 2.881-.19.97-.527 1.68-1.554 1.901-2.744a4.179 4.179 0 0 0-.712-3.187" style="fill:#000;fill-opacity:1;fill-rule:nonzero;stroke:none;stroke-width:1.27849"/><path d="M3.074 7.999c0-3.203 2.192-5.91 5.176-6.742-.119-.007-.239-.007-.36-.007-3.788 0-6.87 3.028-6.87 6.75 0 3.724 3.082 6.751 6.87 6.751.121 0 .241-.003.36-.007-2.984-.832-5.176-3.539-5.176-6.741" style="fill:#b1bebf;fill-opacity:1;fill-rule:nonzero;stroke:none;stroke-width:1.27849"/></svg>