<svg width="59.986" height="60" viewBox="0 0 15.871 15.875" xmlns="http://www.w3.org/2000/svg"><path d="M2.504 12.145c-.216.003-.383.106-.385.238-.003.131.16.235.38.243.25.008.437-.1.431-.248-.005-.14-.184-.237-.426-.233M4.635 12.701c-.083.001-.165.096-.247.15l.22.259.239-.245c-.07-.059-.143-.165-.212-.164" style="fill:#231f20;fill-opacity:1;fill-rule:nonzero;stroke:none;stroke-width:.530511"/><path d="M12.34 10.962a1.09 1.09 0 0 0-.53-.915c-.269-.24-.843-1.047-.506-3.452a2.945 2.945 0 0 0 .081-.508c.005-.076.009-.153.009-.231 0-1.815-1.466-3.67-3.274-3.67-1.536 0-3.419 1.796-3.574 3.292 0 0-.063 1.016.071 1.608 0 0 .727 3.616-1.461 3.747-.056.036-.111.073-.166.113-.16.112-.32.238-.442.39-.205.255-.149.471.143.628.111.059.234.101.357.133.528.14 1.06.262 1.586.414.149.044.342.133.4.255.17.353.456.459.794.466.701.013 1.403.003 2.105.003v.022c.338 0 .676-.016 1.013.003.988.058 1.886-.28 2.772-.642.43-.176.513-.398.34-.77-.005-.011-.004-.026-.009-.038-.065-.19-.02-.336.13-.482a.573.573 0 0 0 .161-.367m-9.817.576.43.344c-.177-.062-.364-.105-.43-.344m2.662 1.212c-.104-.245-.302-.348-.54-.41-.245-.064-.485-.141-.727-.212l.02-.045c.34.098.682.19 1.017.302a.361.361 0 0 1 .207.183c.093.25.244.414.518.453-.214-.006-.405-.058-.495-.271m.82-7.468-.098 1.78-.014.277-.013.286a16.378 16.378 0 0 1-.023.362 2.46 2.46 0 0 1-.33-.71l-.001.004a6.911 6.911 0 0 1-.034-.158c-.2-.964-.131-1.689.012-2.203l-.004.002c.138-.747.656-1.282.98-1.552.007-.008.015-.013.022-.02l.035-.031.041-.031.084-.061.043-.031c.014-.01.03-.017.043-.026l.088-.05c.238-.131.51-.21.79-.232.28-.02.569.018.838.119.269.098.518.255.727.454l.081.078.068.08.035.04.033.046.065.091c.076.126.141.26.186.401.014.035.02.072.03.108l.013.054c.005.018.006.037.01.055l.016.111.006.112c.004.15-.005.301-.043.448-.005.019-.007.037-.013.056l-.017.054c-.012.036-.02.074-.036.109l-.044.105c-.015.036-.035.068-.053.102-.034.07-.08.13-.123.195l-.074.09-.018.022-.01.01-.004.006-.008.01-.04.038c-.025.025-.049.05-.083.077l-.048.038a.408.408 0 0 1-.05.037c-.033.02-.065.044-.1.063l-.106.055a1.356 1.356 0 0 1-1.375-.155c-.034-.022-.063-.05-.094-.077l-.023-.02-.011-.01-.015-.017-.037-.039c-.023-.021-.052-.062-.079-.097l-.02-.027-.017-.027-.033-.053a1.188 1.188 0 0 1 .165-1.386l.01-.01.005-.007.013-.012.018-.017.037-.034.056-.044.028-.02a.96.96 0 0 1 .75-.149.99.99 0 0 1 .435.212l.044.04.01.011.006.005a.088.088 0 0 1 .012.012l.016.018.016.018c.005.006.01.01.018.022l.042.056a.868.868 0 0 1 .105.227c.023.08.034.16.034.242a.917.917 0 0 1-.038.237.892.892 0 0 1-.1.213c-.024.031-.046.064-.073.091l-.02.021-.01.01-.004.006-.012.012-.034.029-.024.019-.027.02c-.02.015-.036.022-.053.032a.437.437 0 0 1-.053.027c-.019.008-.037.016-.055.022a.676.676 0 0 1-.644-.108c-.015-.01-.029-.023-.042-.035l-.019-.02-.005-.004-.01-.01-.007-.009-.012-.016-.007-.008-.01-.013c-.012-.017-.027-.037-.035-.053a.565.565 0 0 1 .022-.61l.032-.04.034-.037.004-.005.01-.009.006-.006.014-.012a.467.467 0 0 1 .24-.1.45.45 0 0 1 .356.118l.016.016.005.003.008.009.005.006.01.012.017.022c.011.016.018.03.026.044.006.015.013.028.018.043a.372.372 0 0 1-.047.341c-.009.01-.017.022-.027.032l-.014.016-.007.008-.007.006-.003.002-.012.009-.02.015a.302.302 0 0 1-.397-.058l-.011-.016c-.004-.006-.01-.012-.012-.018a.205.205 0 0 1-.024-.064l.001.01c.007.03.02.06.038.085l.01.013.003.003.007.008.014.015.007.008-.003-.003.002.001.011.01a.323.323 0 0 0 .332.05c.01-.003.017-.008.025-.012a.095.095 0 0 0 .024-.013c.007-.006.017-.01.02-.015.003-.002.005-.005.008-.006.003-.002.004-.002.01-.01l.032-.03c-.013.012-.002.002-.004.003l.003-.003.004-.006.01-.012a.203.203 0 0 0 .02-.025l.017-.026a.507.507 0 0 0 .049-.114.54.54 0 0 0 .015-.124.474.474 0 0 0-.092-.258c0-.003-.007-.009-.012-.015l-.016-.018-.011-.012H8.45l-.004-.004-.006-.006-.026-.023a.597.597 0 0 0-.546-.111c-.023.009-.047.015-.07.026-.01.006-.022.009-.033.015l-.033.019-.016.009-.012.009a.274.274 0 0 1-.026.017l-.038.033-.019.017H7.62l-.007.009a.805.805 0 0 0-.14.935l.021.038.01.02.012.015c.016.021.025.041.052.07l.035.04.005.006.006.006.017.016c.023.02.043.044.068.063a1.082 1.082 0 0 0 .692.252c.127.001.256-.019.38-.061l.09-.038c.03-.013.059-.03.088-.045a.42.42 0 0 0 .04-.024l.04-.026c.026-.015.054-.04.083-.063l.041-.035.032-.033.072-.072c.041-.054.09-.105.123-.164a1.393 1.393 0 0 0 .23-.782l-.004-.104c-.003-.034-.009-.068-.013-.102-.002-.017-.004-.035-.008-.051l-.012-.05c-.009-.034-.013-.069-.025-.101l-.033-.098a.305.305 0 0 0-.02-.047l-.022-.047c-.026-.063-.066-.12-.1-.178l-.06-.08-.03-.04-.035-.04-.072-.076-.075-.064a1.75 1.75 0 0 0-1.442-.39 1.917 1.917 0 0 0-.729.286l-.036.022-.031.025-.064.048-.032.023-.033.03-.067.06-.034.03-.008.009-.002.002-.014.015-.057.06-.054.061a1.01 1.01 0 0 0-.052.063l-.05.063c-.031.044-.062.087-.09.132a2.07 2.07 0 0 0-.15.272c-.032.066-.059.134-.083.202 0 0-.046.199-.052.485v-.001l-.016.223m.108 3.033a3.185 3.185 0 0 0-.011-.405c-.007-.094-.013-.19-.018-.285a109.47 109.47 0 0 0-.013-.286c-.003-.094-.01-.187-.014-.277-.006-.124.02-.853.034-1.342.101.407.336.83.839 1.095l-.01.107-.021.231-.021.26c-.007.089-.015.182-.02.276l-.02.286a6.358 6.358 0 0 1-.025.285 2.258 2.258 0 0 0-.006.536l.01.08a2.812 2.812 0 0 1-.704-.56m1.4 4.794h-.985v-.06c.16 0 .322-.006.482.002.168.009.335.032.502.049v.009m-.377-4.081v-.001a3.266 3.266 0 0 0 .044-.491c0-.09-.01-.183-.02-.277a6.26 6.26 0 0 1-.025-.285l-.018-.286-.02-.277-.022-.259-.02-.232-.005-.048c.163.071.352.128.569.164l-.001.025-.012.563-.008.285a6.939 6.939 0 0 0-.002.536c0 .04.003.081.004.12l.006.112c.003.071.008.137.012.195a4.848 4.848 0 0 0 .027.283h.012l.014-.132c.005-.042.009-.092.013-.15.004-.06.01-.125.012-.196l.006-.112.004-.12a6.73 6.73 0 0 0-.002-.536l-.008-.285a676.12 676.12 0 0 1-.012-.563v-.015l.146.017-.004.129-.012.562-.008.286a6.911 6.911 0 0 0-.002.535l.005.12.005.112c.003.072.008.138.012.196a4.878 4.878 0 0 0 .017.185 2.38 2.38 0 0 1-.707-.16m.867.166c-.042 0-.085 0-.127-.003l.004-.036L7.892 9c.004-.058.009-.124.012-.196l.006-.112c0-.04.003-.079.004-.12a6.703 6.703 0 0 0-.002-.535l-.008-.286-.012-.563a10.7 10.7 0 0 1-.003-.122l.11.008s.093.008.24 0l-.001.022c-.005.055-.012.11-.02.164a.95.95 0 0 0-.005.306 1.395 1.395 0 0 0 .055.244c.01.033.023.062.032.086a.857.857 0 0 0 .037.076h.028l.012-.02a.595.595 0 0 0 .026-.056 1.397 1.397 0 0 0 .097-.479 1.25 1.25 0 0 0-.015-.157c-.008-.054-.016-.11-.02-.164l-.004-.045c.11-.015.235-.04.366-.078l-.022.217c-.009.09-.018.183-.025.277-.009.094-.016.19-.023.285a5.07 5.07 0 0 1-.031.286 2.407 2.407 0 0 0-.024.277 2.609 2.609 0 0 0 .117.729c-.257.095-.531.149-.817.149m1.19-.62c.003.083.008.16.012.232l.004.057a2.589 2.589 0 0 1-.114.062 2.492 2.492 0 0 0 .066-.35 1.93 1.93 0 0 0 .016-.259 2.42 2.42 0 0 0-.024-.277 5.632 5.632 0 0 1-.031-.286l-.022-.285-.026-.277-.026-.259-.004-.032c.063-.025.126-.053.189-.085a46.96 46.96 0 0 0-.012.376l-.016.562c-.004.192-.016.383-.017.563 0 .09.002.176.005.259M9.933 6.8l-.016.26-.016.275-.014.286c-.005.096-.012.192-.02.286a2.916 2.916 0 0 0-.01.441c-.159.169-.34.32-.538.447.004-.069.009-.143.011-.221a6.67 6.67 0 0 0 .005-.259c0-.18-.012-.371-.017-.563l-.015-.562-.013-.407c.244-.135.481-.331.666-.616-.002.125 0 .315-.007.401l-.016.232m.612.026c-.01.392-.158.801-.405 1.168a50.336 50.336 0 0 1-.026-.373l-.014-.286a53.415 53.415 0 0 0-.048-.767c-.007-.1-.017-.38-.025-.52a1.98 1.98 0 0 0 .086-.175.79.79 0 0 0 .112-.328s.39.455.32 1.281m1.26 5.561c-.267.141-.557.24-.844.344.333-.298.877-.32 1.048-.802.067.185.027.337-.203.458" style="fill:#231f20;fill-opacity:1;fill-rule:nonzero;stroke:none;stroke-width:.530511"/><path d="m8.136 4.944.004.003c-.001-.001 0 0 0 0l.002.001c.002.001.005.001.006.003.018.008.042.006.055-.012.014-.017.017-.048.002-.067l-.004-.006H8.2l-.022.021c0 .001-.01-.01-.03-.006-.01.003-.02.014-.022.03a.038.038 0 0 0 .004.022l.006.008" style="fill:#231f20;fill-opacity:1;fill-rule:nonzero;stroke:none;stroke-width:.530511"/><path d="M.179 0s1.177.773 2.845 2.056c1.692 1.259 3.83 3.076 5.914 4.96l1.556 1.408c.523.456 1.005.937 1.463 1.41.45.48.853.973 1.218 1.453.375.472.704.938.993 1.38.59.873 1.023 1.643 1.294 2.203.278.555.41.89.41.89l-.152.115s-.308-.202-.796-.59a22.196 22.196 0 0 1-.857-.712c-.32-.283-.694-.59-1.074-.948a44.303 44.303 0 0 1-2.52-2.49c-.86-.959-1.703-2.056-2.634-3.078-1.843-2.06-3.794-4.03-5.268-5.505C1.087 1.088.059.146.059.146Z" style="fill:#bf1b2c;fill-opacity:1;fill-rule:nonzero;stroke:none;stroke-width:.530511"/><path d="M15.238 2.927s-1.165.272-2.789.981c-.408.166-.831.393-1.284.61-.437.253-.921.467-1.382.763-.473.273-.948.574-1.413.906-.48.308-.922.682-1.378 1.03-.451.357-.861.763-1.275 1.143-.397.4-.766.811-1.158 1.17-.387.366-.74.741-1.12 1.057-.381.317-.688.666-1.02.952-.31.302-.646.546-.89.804-.261.246-.497.46-.7.63-.404.346-.667.53-.667.53l-.162-.1s.073-.299.258-.8c.09-.253.213-.555.362-.898.141-.348.364-.702.6-1.095.245-.386.489-.827.836-1.224.329-.412.687-.842 1.104-1.242.437-.38.894-.767 1.393-1.115.517-.328 1-.706 1.535-1.017.53-.315 1.043-.65 1.587-.917.53-.29 1.066-.546 1.594-.773a18.9 18.9 0 0 1 2.95-1.04c1.765-.487 2.991-.54 2.991-.54Z" style="fill:#bf1b2c;fill-opacity:1;fill-rule:nonzero;stroke:none;stroke-width:.530511"/></svg>